<mxfile host="Electron" agent="Mozilla/5.0 (Windows NT 10.0; Win64; x64) AppleWebKit/537.36 (KHTML, like Gecko) draw.io/24.7.17 Chrome/128.0.6613.36 Electron/32.0.1 Safari/537.36" version="24.7.17" pages="3">
  <diagram name="ERD" id="QjuTqfYs076ZWg4kDuWV">
    <mxGraphModel dx="2234" dy="1236" grid="0" gridSize="10" guides="1" tooltips="1" connect="1" arrows="1" fold="1" page="0" pageScale="1" pageWidth="827" pageHeight="1169" background="none" math="0" shadow="0">
      <root>
        <mxCell id="0" />
        <mxCell id="1" parent="0" />
        <mxCell id="fJpas_aMie5ZIC00HAkX-1" value="Player" style="whiteSpace=wrap;html=1;align=center;fontFamily=Helvetica;fontSize=11;fontColor=default;labelBackgroundColor=default;" parent="1" vertex="1">
          <mxGeometry x="-49" y="75" width="65" height="40" as="geometry" />
        </mxCell>
        <mxCell id="fJpas_aMie5ZIC00HAkX-2" style="edgeStyle=none;shape=connector;rounded=0;orthogonalLoop=1;jettySize=auto;html=1;entryDx=0;entryDy=0;strokeColor=default;align=center;verticalAlign=middle;fontFamily=Helvetica;fontSize=11;fontColor=default;labelBackgroundColor=default;endArrow=none;endFill=0;" parent="1" source="fJpas_aMie5ZIC00HAkX-3" target="fJpas_aMie5ZIC00HAkX-1" edge="1">
          <mxGeometry relative="1" as="geometry" />
        </mxCell>
        <mxCell id="fJpas_aMie5ZIC00HAkX-3" value="dob" style="ellipse;whiteSpace=wrap;html=1;align=center;fontFamily=Helvetica;fontSize=11;fontColor=default;labelBackgroundColor=default;flipV=1;" parent="1" vertex="1">
          <mxGeometry x="-186" y="10" width="60" height="40" as="geometry" />
        </mxCell>
        <mxCell id="fJpas_aMie5ZIC00HAkX-4" value="playerId" style="ellipse;whiteSpace=wrap;html=1;align=center;fontStyle=4;fontFamily=Helvetica;fontSize=11;fontColor=default;labelBackgroundColor=default;flipV=1;" parent="1" vertex="1">
          <mxGeometry x="-143.99" y="-35" width="50" height="40" as="geometry" />
        </mxCell>
        <mxCell id="fJpas_aMie5ZIC00HAkX-5" style="edgeStyle=none;shape=connector;rounded=0;orthogonalLoop=1;jettySize=auto;html=1;entryDx=0;entryDy=0;entryPerimeter=0;strokeColor=default;align=center;verticalAlign=middle;fontFamily=Helvetica;fontSize=11;fontColor=default;labelBackgroundColor=default;endArrow=none;endFill=0;" parent="1" source="fJpas_aMie5ZIC00HAkX-4" target="fJpas_aMie5ZIC00HAkX-1" edge="1">
          <mxGeometry relative="1" as="geometry" />
        </mxCell>
        <mxCell id="fJpas_aMie5ZIC00HAkX-16" style="edgeStyle=none;shape=connector;rounded=0;orthogonalLoop=1;jettySize=auto;html=1;strokeColor=default;align=center;verticalAlign=middle;fontFamily=Helvetica;fontSize=11;fontColor=default;labelBackgroundColor=default;endArrow=none;endFill=0;" parent="1" source="fJpas_aMie5ZIC00HAkX-6" target="fJpas_aMie5ZIC00HAkX-1" edge="1">
          <mxGeometry relative="1" as="geometry" />
        </mxCell>
        <mxCell id="fJpas_aMie5ZIC00HAkX-6" value="nationality" style="ellipse;whiteSpace=wrap;html=1;align=center;fontFamily=Helvetica;fontSize=11;fontColor=default;labelBackgroundColor=default;flipV=1;" parent="1" vertex="1">
          <mxGeometry x="-186" y="60" width="60" height="40" as="geometry" />
        </mxCell>
        <mxCell id="fJpas_aMie5ZIC00HAkX-12" style="rounded=0;orthogonalLoop=1;jettySize=auto;html=1;strokeColor=default;endArrow=none;endFill=0;" parent="1" source="fJpas_aMie5ZIC00HAkX-9" target="fJpas_aMie5ZIC00HAkX-1" edge="1">
          <mxGeometry relative="1" as="geometry" />
        </mxCell>
        <mxCell id="fJpas_aMie5ZIC00HAkX-9" value="ingameName" style="ellipse;whiteSpace=wrap;html=1;align=center;fontFamily=Helvetica;fontSize=11;fontColor=default;labelBackgroundColor=default;flipV=1;" parent="1" vertex="1">
          <mxGeometry x="-80.25" y="-35" width="71" height="40" as="geometry" />
        </mxCell>
        <mxCell id="fJpas_aMie5ZIC00HAkX-14" style="edgeStyle=none;shape=connector;rounded=0;orthogonalLoop=1;jettySize=auto;html=1;strokeColor=default;align=center;verticalAlign=middle;fontFamily=Helvetica;fontSize=11;fontColor=default;labelBackgroundColor=default;endArrow=none;endFill=0;" parent="1" source="fJpas_aMie5ZIC00HAkX-10" target="fJpas_aMie5ZIC00HAkX-1" edge="1">
          <mxGeometry relative="1" as="geometry" />
        </mxCell>
        <mxCell id="fJpas_aMie5ZIC00HAkX-118" style="edgeStyle=none;shape=connector;rounded=0;orthogonalLoop=1;jettySize=auto;html=1;strokeColor=default;align=center;verticalAlign=middle;fontFamily=Helvetica;fontSize=11;fontColor=default;labelBackgroundColor=default;endArrow=none;endFill=0;" parent="1" source="fJpas_aMie5ZIC00HAkX-10" target="fJpas_aMie5ZIC00HAkX-97" edge="1">
          <mxGeometry relative="1" as="geometry" />
        </mxCell>
        <mxCell id="fJpas_aMie5ZIC00HAkX-119" style="edgeStyle=none;shape=connector;rounded=0;orthogonalLoop=1;jettySize=auto;html=1;strokeColor=default;align=center;verticalAlign=middle;fontFamily=Helvetica;fontSize=11;fontColor=default;labelBackgroundColor=default;endArrow=none;endFill=0;" parent="1" source="fJpas_aMie5ZIC00HAkX-10" target="fJpas_aMie5ZIC00HAkX-98" edge="1">
          <mxGeometry relative="1" as="geometry" />
        </mxCell>
        <mxCell id="fJpas_aMie5ZIC00HAkX-10" value="playerName" style="ellipse;whiteSpace=wrap;html=1;align=center;fontFamily=Helvetica;fontSize=11;fontColor=default;labelBackgroundColor=default;flipV=1;" parent="1" vertex="1">
          <mxGeometry x="-7" y="-14" width="66" height="40" as="geometry" />
        </mxCell>
        <mxCell id="fJpas_aMie5ZIC00HAkX-15" style="edgeStyle=none;shape=connector;rounded=0;orthogonalLoop=1;jettySize=auto;html=1;strokeColor=default;align=center;verticalAlign=middle;fontFamily=Helvetica;fontSize=11;fontColor=default;labelBackgroundColor=default;endArrow=none;endFill=0;" parent="1" source="fJpas_aMie5ZIC00HAkX-11" target="fJpas_aMie5ZIC00HAkX-1" edge="1">
          <mxGeometry relative="1" as="geometry" />
        </mxCell>
        <mxCell id="fJpas_aMie5ZIC00HAkX-11" value="role" style="ellipse;whiteSpace=wrap;html=1;align=center;fontFamily=Helvetica;fontSize=11;fontColor=default;labelBackgroundColor=default;flipV=1;" parent="1" vertex="1">
          <mxGeometry x="69.75" y="-35" width="60" height="40" as="geometry" />
        </mxCell>
        <mxCell id="fJpas_aMie5ZIC00HAkX-21" value="Team" style="whiteSpace=wrap;html=1;align=center;fontFamily=Helvetica;fontSize=11;fontColor=default;labelBackgroundColor=default;" parent="1" vertex="1">
          <mxGeometry x="783.5" y="72" width="65" height="40" as="geometry" />
        </mxCell>
        <mxCell id="fJpas_aMie5ZIC00HAkX-30" style="rounded=0;orthogonalLoop=1;jettySize=auto;html=1;strokeColor=default;endArrow=none;endFill=0;" parent="1" source="fJpas_aMie5ZIC00HAkX-31" target="fJpas_aMie5ZIC00HAkX-21" edge="1">
          <mxGeometry relative="1" as="geometry" />
        </mxCell>
        <mxCell id="fJpas_aMie5ZIC00HAkX-31" value="&lt;u&gt;teamId&lt;/u&gt;" style="ellipse;whiteSpace=wrap;html=1;align=center;fontFamily=Helvetica;fontSize=11;fontColor=default;labelBackgroundColor=default;flipV=1;" parent="1" vertex="1">
          <mxGeometry x="884" y="-14" width="60" height="40" as="geometry" />
        </mxCell>
        <mxCell id="fJpas_aMie5ZIC00HAkX-38" value="Region" style="whiteSpace=wrap;html=1;align=center;fontFamily=Helvetica;fontSize=11;fontColor=default;labelBackgroundColor=default;" parent="1" vertex="1">
          <mxGeometry x="783.5" y="547" width="65" height="40" as="geometry" />
        </mxCell>
        <mxCell id="fJpas_aMie5ZIC00HAkX-41" style="rounded=0;orthogonalLoop=1;jettySize=auto;html=1;strokeColor=default;endArrow=none;endFill=0;" parent="1" source="fJpas_aMie5ZIC00HAkX-42" target="fJpas_aMie5ZIC00HAkX-38" edge="1">
          <mxGeometry relative="1" as="geometry" />
        </mxCell>
        <mxCell id="fJpas_aMie5ZIC00HAkX-42" value="regionName" style="ellipse;whiteSpace=wrap;html=1;align=center;fontFamily=Helvetica;fontSize=11;fontColor=default;labelBackgroundColor=default;flipV=1;fontStyle=4" parent="1" vertex="1">
          <mxGeometry x="771" y="637" width="90" height="40" as="geometry" />
        </mxCell>
        <mxCell id="fJpas_aMie5ZIC00HAkX-82" style="edgeStyle=none;shape=link;rounded=0;orthogonalLoop=1;jettySize=auto;html=1;strokeColor=default;align=center;verticalAlign=middle;fontFamily=Helvetica;fontSize=11;fontColor=default;labelBackgroundColor=default;endArrow=none;endFill=0;" parent="1" source="fJpas_aMie5ZIC00HAkX-47" target="fJpas_aMie5ZIC00HAkX-81" edge="1">
          <mxGeometry relative="1" as="geometry" />
        </mxCell>
        <mxCell id="m6y0govJC5TdCKhgVr8m-4" style="rounded=0;orthogonalLoop=1;jettySize=auto;html=1;endArrow=none;endFill=0;exitX=1;exitY=0;exitDx=0;exitDy=0;entryX=0;entryY=0.5;entryDx=0;entryDy=0;" parent="1" source="fJpas_aMie5ZIC00HAkX-47" target="m6y0govJC5TdCKhgVr8m-11" edge="1">
          <mxGeometry relative="1" as="geometry">
            <mxPoint x="738" y="773" as="targetPoint" />
          </mxGeometry>
        </mxCell>
        <mxCell id="wX9nulocx6VRCnXDJnAP-2" style="rounded=0;orthogonalLoop=1;jettySize=auto;html=1;endArrow=none;endFill=0;" parent="1" source="fJpas_aMie5ZIC00HAkX-47" target="fJpas_aMie5ZIC00HAkX-103" edge="1">
          <mxGeometry relative="1" as="geometry" />
        </mxCell>
        <mxCell id="fJpas_aMie5ZIC00HAkX-47" value="Tournament" style="whiteSpace=wrap;html=1;align=center;fontFamily=Helvetica;fontSize=11;fontColor=default;labelBackgroundColor=default;flipV=1;" parent="1" vertex="1">
          <mxGeometry x="-49" y="566" width="65" height="40" as="geometry" />
        </mxCell>
        <mxCell id="fJpas_aMie5ZIC00HAkX-50" value="tournamentId" style="ellipse;whiteSpace=wrap;html=1;align=center;fontStyle=4;fontFamily=Helvetica;fontSize=11;fontColor=default;labelBackgroundColor=default;flipV=1;" parent="1" vertex="1">
          <mxGeometry x="68" y="604" width="90" height="40" as="geometry" />
        </mxCell>
        <mxCell id="fJpas_aMie5ZIC00HAkX-51" style="edgeStyle=none;shape=connector;rounded=0;orthogonalLoop=1;jettySize=auto;html=1;entryDx=0;entryDy=0;entryPerimeter=0;strokeColor=default;align=center;verticalAlign=middle;fontFamily=Helvetica;fontSize=11;fontColor=default;labelBackgroundColor=default;endArrow=none;endFill=0;" parent="1" source="fJpas_aMie5ZIC00HAkX-50" target="fJpas_aMie5ZIC00HAkX-47" edge="1">
          <mxGeometry relative="1" as="geometry" />
        </mxCell>
        <mxCell id="fJpas_aMie5ZIC00HAkX-52" style="edgeStyle=none;shape=connector;rounded=0;orthogonalLoop=1;jettySize=auto;html=1;strokeColor=default;align=center;verticalAlign=middle;fontFamily=Helvetica;fontSize=11;fontColor=default;labelBackgroundColor=default;endArrow=none;endFill=0;" parent="1" source="fJpas_aMie5ZIC00HAkX-53" target="fJpas_aMie5ZIC00HAkX-47" edge="1">
          <mxGeometry relative="1" as="geometry" />
        </mxCell>
        <mxCell id="fJpas_aMie5ZIC00HAkX-53" value="endDate" style="ellipse;whiteSpace=wrap;html=1;align=center;fontFamily=Helvetica;fontSize=11;fontColor=default;labelBackgroundColor=default;flipV=1;" parent="1" vertex="1">
          <mxGeometry x="-153.99" y="490" width="60" height="40" as="geometry" />
        </mxCell>
        <mxCell id="fJpas_aMie5ZIC00HAkX-54" style="edgeStyle=none;shape=connector;rounded=0;orthogonalLoop=1;jettySize=auto;html=1;strokeColor=default;align=center;verticalAlign=middle;fontFamily=Helvetica;fontSize=11;fontColor=default;labelBackgroundColor=default;endArrow=none;endFill=0;" parent="1" source="fJpas_aMie5ZIC00HAkX-55" target="fJpas_aMie5ZIC00HAkX-47" edge="1">
          <mxGeometry relative="1" as="geometry" />
        </mxCell>
        <mxCell id="fJpas_aMie5ZIC00HAkX-55" value="startDate" style="ellipse;whiteSpace=wrap;html=1;align=center;fontFamily=Helvetica;fontSize=11;fontColor=default;labelBackgroundColor=default;flipV=1;" parent="1" vertex="1">
          <mxGeometry x="-88.99" y="479" width="60" height="40" as="geometry" />
        </mxCell>
        <mxCell id="fJpas_aMie5ZIC00HAkX-56" style="rounded=0;orthogonalLoop=1;jettySize=auto;html=1;strokeColor=default;endArrow=none;endFill=0;exitX=0.5;exitY=0;exitDx=0;exitDy=0;" parent="1" source="fJpas_aMie5ZIC00HAkX-57" target="fJpas_aMie5ZIC00HAkX-47" edge="1">
          <mxGeometry relative="1" as="geometry" />
        </mxCell>
        <mxCell id="fJpas_aMie5ZIC00HAkX-57" value="tournamentName" style="ellipse;whiteSpace=wrap;html=1;align=center;fontFamily=Helvetica;fontSize=11;fontColor=default;labelBackgroundColor=default;flipV=1;" parent="1" vertex="1">
          <mxGeometry x="-135" y="647" width="110" height="40" as="geometry" />
        </mxCell>
        <mxCell id="fJpas_aMie5ZIC00HAkX-66" style="edgeStyle=none;shape=link;rounded=0;orthogonalLoop=1;jettySize=auto;html=1;strokeColor=default;align=center;verticalAlign=middle;fontFamily=Helvetica;fontSize=11;fontColor=default;labelBackgroundColor=default;endArrow=none;endFill=0;exitX=0.5;exitY=0;exitDx=0;exitDy=0;" parent="1" source="fJpas_aMie5ZIC00HAkX-65" target="fJpas_aMie5ZIC00HAkX-21" edge="1">
          <mxGeometry relative="1" as="geometry">
            <mxPoint x="552.5" y="200" as="sourcePoint" />
          </mxGeometry>
        </mxCell>
        <mxCell id="fJpas_aMie5ZIC00HAkX-67" style="edgeStyle=none;shape=connector;rounded=0;orthogonalLoop=1;jettySize=auto;html=1;strokeColor=default;align=center;verticalAlign=middle;fontFamily=Helvetica;fontSize=11;fontColor=default;labelBackgroundColor=default;endArrow=none;endFill=0;" parent="1" source="fJpas_aMie5ZIC00HAkX-65" target="fJpas_aMie5ZIC00HAkX-38" edge="1">
          <mxGeometry relative="1" as="geometry" />
        </mxCell>
        <mxCell id="fJpas_aMie5ZIC00HAkX-65" value="Belongs to" style="shape=rhombus;perimeter=rhombusPerimeter;whiteSpace=wrap;html=1;align=center;fontFamily=Helvetica;fontSize=11;fontColor=default;labelBackgroundColor=default;" parent="1" vertex="1">
          <mxGeometry x="756" y="277" width="120" height="60" as="geometry" />
        </mxCell>
        <mxCell id="fJpas_aMie5ZIC00HAkX-68" value="M" style="text;html=1;align=center;verticalAlign=middle;resizable=0;points=[];autosize=1;strokeColor=none;fillColor=none;fontFamily=Helvetica;fontSize=11;fontColor=default;labelBackgroundColor=default;" parent="1" vertex="1">
          <mxGeometry x="823.5" y="338" width="27" height="25" as="geometry" />
        </mxCell>
        <mxCell id="fJpas_aMie5ZIC00HAkX-69" value="N" style="text;html=1;align=center;verticalAlign=middle;resizable=0;points=[];autosize=1;strokeColor=none;fillColor=none;fontFamily=Helvetica;fontSize=11;fontColor=default;labelBackgroundColor=default;" parent="1" vertex="1">
          <mxGeometry x="813.5" y="247" width="30" height="30" as="geometry" />
        </mxCell>
        <mxCell id="fJpas_aMie5ZIC00HAkX-76" style="edgeStyle=none;shape=link;rounded=0;orthogonalLoop=1;jettySize=auto;html=1;strokeColor=default;align=center;verticalAlign=middle;fontFamily=Helvetica;fontSize=11;fontColor=default;labelBackgroundColor=default;endArrow=none;endFill=0;" parent="1" source="fJpas_aMie5ZIC00HAkX-70" target="fJpas_aMie5ZIC00HAkX-71" edge="1">
          <mxGeometry relative="1" as="geometry" />
        </mxCell>
        <mxCell id="fJpas_aMie5ZIC00HAkX-77" style="edgeStyle=none;shape=connector;rounded=0;orthogonalLoop=1;jettySize=auto;html=1;strokeColor=default;align=center;verticalAlign=middle;fontFamily=Helvetica;fontSize=11;fontColor=default;labelBackgroundColor=default;endArrow=none;endFill=0;exitX=1;exitY=0.5;exitDx=0;exitDy=0;" parent="1" source="fJpas_aMie5ZIC00HAkX-70" target="fJpas_aMie5ZIC00HAkX-38" edge="1">
          <mxGeometry relative="1" as="geometry" />
        </mxCell>
        <mxCell id="fJpas_aMie5ZIC00HAkX-70" value="Belongs to" style="shape=rhombus;perimeter=rhombusPerimeter;whiteSpace=wrap;html=1;align=center;fontFamily=Helvetica;fontSize=11;fontColor=default;labelBackgroundColor=default;" parent="1" vertex="1">
          <mxGeometry x="577" y="537" width="120" height="60" as="geometry" />
        </mxCell>
        <mxCell id="fJpas_aMie5ZIC00HAkX-83" style="edgeStyle=none;shape=connector;rounded=0;orthogonalLoop=1;jettySize=auto;html=1;strokeColor=default;align=center;verticalAlign=middle;fontFamily=Helvetica;fontSize=11;fontColor=default;labelBackgroundColor=default;endArrow=none;endFill=0;" parent="1" source="fJpas_aMie5ZIC00HAkX-71" target="fJpas_aMie5ZIC00HAkX-81" edge="1">
          <mxGeometry relative="1" as="geometry" />
        </mxCell>
        <mxCell id="fJpas_aMie5ZIC00HAkX-71" value="Region Tournament" style="whiteSpace=wrap;html=1;align=center;fontFamily=Helvetica;fontSize=11;fontColor=default;labelBackgroundColor=default;flipV=1;" parent="1" vertex="1">
          <mxGeometry x="442" y="547" width="65" height="40" as="geometry" />
        </mxCell>
        <mxCell id="fJpas_aMie5ZIC00HAkX-84" style="edgeStyle=none;shape=connector;rounded=0;orthogonalLoop=1;jettySize=auto;html=1;strokeColor=default;align=center;verticalAlign=middle;fontFamily=Helvetica;fontSize=11;fontColor=default;labelBackgroundColor=default;endArrow=none;endFill=0;" parent="1" source="fJpas_aMie5ZIC00HAkX-73" target="fJpas_aMie5ZIC00HAkX-81" edge="1">
          <mxGeometry relative="1" as="geometry" />
        </mxCell>
        <mxCell id="fJpas_aMie5ZIC00HAkX-73" value="International Tournament" style="whiteSpace=wrap;html=1;align=center;fontFamily=Helvetica;fontSize=11;fontColor=default;labelBackgroundColor=default;flipV=1;" parent="1" vertex="1">
          <mxGeometry x="417.75" y="611" width="113.5" height="40" as="geometry" />
        </mxCell>
        <mxCell id="fJpas_aMie5ZIC00HAkX-75" style="edgeStyle=none;shape=connector;rounded=0;orthogonalLoop=1;jettySize=auto;html=1;strokeColor=default;align=center;verticalAlign=middle;fontFamily=Helvetica;fontSize=11;fontColor=default;labelBackgroundColor=default;endArrow=none;endFill=0;" parent="1" source="fJpas_aMie5ZIC00HAkX-74" target="fJpas_aMie5ZIC00HAkX-71" edge="1">
          <mxGeometry relative="1" as="geometry" />
        </mxCell>
        <mxCell id="fJpas_aMie5ZIC00HAkX-74" value="season" style="ellipse;whiteSpace=wrap;html=1;align=center;fontFamily=Helvetica;fontSize=11;fontColor=default;labelBackgroundColor=default;flipV=1;" parent="1" vertex="1">
          <mxGeometry x="444.5" y="495" width="60" height="40" as="geometry" />
        </mxCell>
        <mxCell id="fJpas_aMie5ZIC00HAkX-81" value="d" style="ellipse;whiteSpace=wrap;html=1;aspect=fixed;fontFamily=Helvetica;fontSize=11;fontColor=default;labelBackgroundColor=default;" parent="1" vertex="1">
          <mxGeometry x="313" y="566" width="40" height="40" as="geometry" />
        </mxCell>
        <mxCell id="fJpas_aMie5ZIC00HAkX-86" style="edgeStyle=none;shape=connector;rounded=0;orthogonalLoop=1;jettySize=auto;html=1;strokeColor=default;align=center;verticalAlign=middle;fontFamily=Helvetica;fontSize=11;fontColor=default;labelBackgroundColor=default;endArrow=none;endFill=0;" parent="1" source="fJpas_aMie5ZIC00HAkX-85" target="fJpas_aMie5ZIC00HAkX-1" edge="1">
          <mxGeometry relative="1" as="geometry" />
        </mxCell>
        <mxCell id="fJpas_aMie5ZIC00HAkX-87" style="edgeStyle=none;shape=connector;rounded=0;orthogonalLoop=1;jettySize=auto;html=1;exitX=1;exitY=0.5;exitDx=0;exitDy=0;strokeColor=default;align=center;verticalAlign=middle;fontFamily=Helvetica;fontSize=11;fontColor=default;labelBackgroundColor=default;endArrow=none;endFill=0;" parent="1" source="fJpas_aMie5ZIC00HAkX-85" target="fJpas_aMie5ZIC00HAkX-21" edge="1">
          <mxGeometry relative="1" as="geometry" />
        </mxCell>
        <mxCell id="fJpas_aMie5ZIC00HAkX-85" value="Play for" style="shape=rhombus;perimeter=rhombusPerimeter;whiteSpace=wrap;html=1;align=center;fontFamily=Helvetica;fontSize=11;fontColor=default;labelBackgroundColor=default;" parent="1" vertex="1">
          <mxGeometry x="344" y="65" width="120" height="60" as="geometry" />
        </mxCell>
        <mxCell id="fJpas_aMie5ZIC00HAkX-88" value="N" style="text;html=1;align=center;verticalAlign=middle;resizable=0;points=[];autosize=1;strokeColor=none;fillColor=none;fontFamily=Helvetica;fontSize=11;fontColor=default;labelBackgroundColor=default;" parent="1" vertex="1">
          <mxGeometry x="329" y="93" width="30" height="30" as="geometry" />
        </mxCell>
        <mxCell id="fJpas_aMie5ZIC00HAkX-89" value="M" style="text;html=1;align=center;verticalAlign=middle;resizable=0;points=[];autosize=1;strokeColor=none;fillColor=none;fontFamily=Helvetica;fontSize=11;fontColor=default;labelBackgroundColor=default;" parent="1" vertex="1">
          <mxGeometry x="459" y="93" width="30" height="30" as="geometry" />
        </mxCell>
        <mxCell id="fJpas_aMie5ZIC00HAkX-91" style="edgeStyle=none;shape=connector;rounded=0;orthogonalLoop=1;jettySize=auto;html=1;strokeColor=default;align=center;verticalAlign=middle;fontFamily=Helvetica;fontSize=11;fontColor=default;labelBackgroundColor=default;endArrow=none;endFill=0;" parent="1" source="fJpas_aMie5ZIC00HAkX-90" target="fJpas_aMie5ZIC00HAkX-47" edge="1">
          <mxGeometry relative="1" as="geometry" />
        </mxCell>
        <mxCell id="fJpas_aMie5ZIC00HAkX-90" value="numberOfTeams" style="ellipse;whiteSpace=wrap;html=1;align=center;dashed=1;fontFamily=Helvetica;fontSize=11;fontColor=default;labelBackgroundColor=default;" parent="1" vertex="1">
          <mxGeometry x="7" y="647" width="100" height="40" as="geometry" />
        </mxCell>
        <mxCell id="fJpas_aMie5ZIC00HAkX-93" style="edgeStyle=none;shape=connector;rounded=0;orthogonalLoop=1;jettySize=auto;html=1;strokeColor=default;align=center;verticalAlign=middle;fontFamily=Helvetica;fontSize=11;fontColor=default;labelBackgroundColor=default;endArrow=none;endFill=0;" parent="1" source="fJpas_aMie5ZIC00HAkX-92" target="fJpas_aMie5ZIC00HAkX-85" edge="1">
          <mxGeometry relative="1" as="geometry" />
        </mxCell>
        <mxCell id="fJpas_aMie5ZIC00HAkX-92" value="startDate" style="ellipse;whiteSpace=wrap;html=1;align=center;fontFamily=Helvetica;fontSize=11;fontColor=default;labelBackgroundColor=default;flipV=1;" parent="1" vertex="1">
          <mxGeometry x="334" y="5" width="60" height="40" as="geometry" />
        </mxCell>
        <mxCell id="fJpas_aMie5ZIC00HAkX-95" style="edgeStyle=none;shape=connector;rounded=0;orthogonalLoop=1;jettySize=auto;html=1;strokeColor=default;align=center;verticalAlign=middle;fontFamily=Helvetica;fontSize=11;fontColor=default;labelBackgroundColor=default;endArrow=none;endFill=0;" parent="1" source="fJpas_aMie5ZIC00HAkX-94" target="fJpas_aMie5ZIC00HAkX-85" edge="1">
          <mxGeometry relative="1" as="geometry" />
        </mxCell>
        <mxCell id="fJpas_aMie5ZIC00HAkX-94" value="endDate" style="ellipse;whiteSpace=wrap;html=1;align=center;fontFamily=Helvetica;fontSize=11;fontColor=default;labelBackgroundColor=default;flipV=1;" parent="1" vertex="1">
          <mxGeometry x="414" y="5" width="60" height="40" as="geometry" />
        </mxCell>
        <mxCell id="fJpas_aMie5ZIC00HAkX-97" value="first name" style="ellipse;whiteSpace=wrap;html=1;align=center;fontFamily=Helvetica;fontSize=11;fontColor=default;labelBackgroundColor=default;flipV=1;" parent="1" vertex="1">
          <mxGeometry x="-44" y="-80" width="66" height="40" as="geometry" />
        </mxCell>
        <mxCell id="fJpas_aMie5ZIC00HAkX-98" value="lastMiddleName" style="ellipse;whiteSpace=wrap;html=1;align=center;fontFamily=Helvetica;fontSize=11;fontColor=default;labelBackgroundColor=default;flipV=1;" parent="1" vertex="1">
          <mxGeometry x="26.5" y="-80" width="111" height="40" as="geometry" />
        </mxCell>
        <mxCell id="fJpas_aMie5ZIC00HAkX-103" value="competitionLocation" style="ellipse;shape=doubleEllipse;margin=3;whiteSpace=wrap;html=1;align=center;fontFamily=Helvetica;fontSize=11;fontColor=default;labelBackgroundColor=default;" parent="1" vertex="1">
          <mxGeometry x="-68.75" y="684" width="110.75" height="40" as="geometry" />
        </mxCell>
        <mxCell id="fJpas_aMie5ZIC00HAkX-105" style="edgeStyle=none;shape=connector;rounded=0;orthogonalLoop=1;jettySize=auto;html=1;strokeColor=default;align=center;verticalAlign=middle;fontFamily=Helvetica;fontSize=11;fontColor=default;labelBackgroundColor=default;endArrow=none;endFill=0;exitX=1;exitY=0.5;exitDx=0;exitDy=0;" parent="1" source="fJpas_aMie5ZIC00HAkX-104" target="fJpas_aMie5ZIC00HAkX-21" edge="1">
          <mxGeometry relative="1" as="geometry" />
        </mxCell>
        <mxCell id="fJpas_aMie5ZIC00HAkX-106" style="edgeStyle=none;shape=connector;rounded=0;orthogonalLoop=1;jettySize=auto;html=1;strokeColor=default;align=center;verticalAlign=middle;fontFamily=Helvetica;fontSize=11;fontColor=default;labelBackgroundColor=default;endArrow=none;endFill=0;exitX=0;exitY=0.5;exitDx=0;exitDy=0;" parent="1" source="fJpas_aMie5ZIC00HAkX-104" target="fJpas_aMie5ZIC00HAkX-47" edge="1">
          <mxGeometry relative="1" as="geometry" />
        </mxCell>
        <mxCell id="fJpas_aMie5ZIC00HAkX-112" style="edgeStyle=none;shape=connector;rounded=0;orthogonalLoop=1;jettySize=auto;html=1;strokeColor=default;align=center;verticalAlign=middle;fontFamily=Helvetica;fontSize=11;fontColor=default;labelBackgroundColor=default;endArrow=none;endFill=0;" parent="1" source="fJpas_aMie5ZIC00HAkX-109" target="fJpas_aMie5ZIC00HAkX-103" edge="1">
          <mxGeometry relative="1" as="geometry" />
        </mxCell>
        <mxCell id="fJpas_aMie5ZIC00HAkX-109" value="city" style="ellipse;whiteSpace=wrap;html=1;align=center;fontFamily=Helvetica;fontSize=11;fontColor=default;labelBackgroundColor=default;flipV=1;" parent="1" vertex="1">
          <mxGeometry x="-73" y="734" width="60" height="40" as="geometry" />
        </mxCell>
        <mxCell id="fJpas_aMie5ZIC00HAkX-113" style="edgeStyle=none;shape=connector;rounded=0;orthogonalLoop=1;jettySize=auto;html=1;strokeColor=default;align=center;verticalAlign=middle;fontFamily=Helvetica;fontSize=11;fontColor=default;labelBackgroundColor=default;endArrow=none;endFill=0;" parent="1" source="fJpas_aMie5ZIC00HAkX-111" target="fJpas_aMie5ZIC00HAkX-103" edge="1">
          <mxGeometry relative="1" as="geometry" />
        </mxCell>
        <mxCell id="fJpas_aMie5ZIC00HAkX-111" value="arena" style="ellipse;whiteSpace=wrap;html=1;align=center;fontFamily=Helvetica;fontSize=11;fontColor=default;labelBackgroundColor=default;flipV=1;" parent="1" vertex="1">
          <mxGeometry x="-3" y="734" width="60" height="40" as="geometry" />
        </mxCell>
        <mxCell id="fJpas_aMie5ZIC00HAkX-115" style="edgeStyle=none;shape=connector;rounded=0;orthogonalLoop=1;jettySize=auto;html=1;strokeColor=default;align=center;verticalAlign=middle;fontFamily=Helvetica;fontSize=11;fontColor=default;labelBackgroundColor=default;endArrow=none;endFill=0;" parent="1" source="fJpas_aMie5ZIC00HAkX-114" target="fJpas_aMie5ZIC00HAkX-21" edge="1">
          <mxGeometry relative="1" as="geometry" />
        </mxCell>
        <mxCell id="fJpas_aMie5ZIC00HAkX-114" value="sponsors" style="ellipse;shape=doubleEllipse;margin=3;whiteSpace=wrap;html=1;align=center;fontFamily=Helvetica;fontSize=11;fontColor=default;labelBackgroundColor=default;direction=south;" parent="1" vertex="1">
          <mxGeometry x="881" y="35" width="90" height="40" as="geometry" />
        </mxCell>
        <mxCell id="fJpas_aMie5ZIC00HAkX-116" value="1" style="text;html=1;align=center;verticalAlign=middle;resizable=0;points=[];autosize=1;strokeColor=none;fillColor=none;fontFamily=Helvetica;fontSize=11;fontColor=default;labelBackgroundColor=default;" parent="1" vertex="1">
          <mxGeometry x="676.5" y="535" width="30" height="30" as="geometry" />
        </mxCell>
        <mxCell id="fJpas_aMie5ZIC00HAkX-117" value="N" style="text;html=1;align=center;verticalAlign=middle;resizable=0;points=[];autosize=1;strokeColor=none;fillColor=none;fontFamily=Helvetica;fontSize=11;fontColor=default;labelBackgroundColor=default;" parent="1" vertex="1">
          <mxGeometry x="560.5" y="537" width="30" height="30" as="geometry" />
        </mxCell>
        <mxCell id="fJpas_aMie5ZIC00HAkX-130" style="edgeStyle=none;rounded=0;orthogonalLoop=1;jettySize=auto;html=1;entryX=0;entryY=0.5;entryDx=0;entryDy=0;strokeColor=default;align=center;verticalAlign=middle;fontFamily=Helvetica;fontSize=11;fontColor=default;labelBackgroundColor=default;endArrow=none;endFill=0;" parent="1" source="fJpas_aMie5ZIC00HAkX-120" target="fJpas_aMie5ZIC00HAkX-128" edge="1">
          <mxGeometry relative="1" as="geometry" />
        </mxCell>
        <mxCell id="fJpas_aMie5ZIC00HAkX-131" style="edgeStyle=none;rounded=0;orthogonalLoop=1;jettySize=auto;html=1;entryX=0;entryY=0.5;entryDx=0;entryDy=0;strokeColor=default;align=center;verticalAlign=middle;fontFamily=Helvetica;fontSize=11;fontColor=default;labelBackgroundColor=default;endArrow=none;endFill=0;" parent="1" source="fJpas_aMie5ZIC00HAkX-120" target="fJpas_aMie5ZIC00HAkX-129" edge="1">
          <mxGeometry relative="1" as="geometry" />
        </mxCell>
        <mxCell id="fJpas_aMie5ZIC00HAkX-120" value="Match" style="whiteSpace=wrap;html=1;align=center;fontFamily=Helvetica;fontSize=11;fontColor=default;labelBackgroundColor=default;" parent="1" vertex="1">
          <mxGeometry x="-64.75" y="277" width="100" height="40" as="geometry" />
        </mxCell>
        <mxCell id="fJpas_aMie5ZIC00HAkX-122" style="edgeStyle=none;shape=connector;rounded=0;orthogonalLoop=1;jettySize=auto;html=1;strokeColor=default;align=center;verticalAlign=middle;fontFamily=Helvetica;fontSize=11;fontColor=default;labelBackgroundColor=default;endArrow=none;endFill=0;" parent="1" source="fJpas_aMie5ZIC00HAkX-121" target="fJpas_aMie5ZIC00HAkX-120" edge="1">
          <mxGeometry relative="1" as="geometry" />
        </mxCell>
        <mxCell id="fJpas_aMie5ZIC00HAkX-121" value="matchId" style="ellipse;whiteSpace=wrap;html=1;align=center;fontStyle=4;fontFamily=Helvetica;fontSize=11;fontColor=default;labelBackgroundColor=default;flipV=1;" parent="1" vertex="1">
          <mxGeometry x="80.63" y="275" width="64.75" height="44" as="geometry" />
        </mxCell>
        <mxCell id="NF3LTUQ_bPjJrq3eggiO-4" style="rounded=0;orthogonalLoop=1;jettySize=auto;html=1;endArrow=none;endFill=0;" parent="1" source="fJpas_aMie5ZIC00HAkX-123" target="fJpas_aMie5ZIC00HAkX-120" edge="1">
          <mxGeometry relative="1" as="geometry" />
        </mxCell>
        <mxCell id="fJpas_aMie5ZIC00HAkX-123" value="matchDate" style="ellipse;whiteSpace=wrap;html=1;align=center;fontFamily=Helvetica;fontSize=11;fontColor=default;labelBackgroundColor=default;flipV=1;" parent="1" vertex="1">
          <mxGeometry x="59" y="327" width="60" height="40" as="geometry" />
        </mxCell>
        <mxCell id="fJpas_aMie5ZIC00HAkX-126" style="edgeStyle=none;rounded=0;orthogonalLoop=1;jettySize=auto;html=1;strokeColor=default;align=center;verticalAlign=middle;fontFamily=Helvetica;fontSize=11;fontColor=default;labelBackgroundColor=default;endArrow=none;endFill=0;exitX=1;exitY=0.5;exitDx=0;exitDy=0;" parent="1" source="fJpas_aMie5ZIC00HAkX-125" target="fJpas_aMie5ZIC00HAkX-47" edge="1">
          <mxGeometry relative="1" as="geometry" />
        </mxCell>
        <mxCell id="fJpas_aMie5ZIC00HAkX-127" style="edgeStyle=none;shape=link;rounded=0;orthogonalLoop=1;jettySize=auto;html=1;strokeColor=default;align=center;verticalAlign=middle;fontFamily=Helvetica;fontSize=11;fontColor=default;labelBackgroundColor=default;endArrow=none;endFill=0;exitX=0;exitY=0.5;exitDx=0;exitDy=0;entryX=1;entryY=1;entryDx=0;entryDy=0;" parent="1" source="fJpas_aMie5ZIC00HAkX-125" target="wX9nulocx6VRCnXDJnAP-21" edge="1">
          <mxGeometry relative="1" as="geometry">
            <mxPoint x="-16.5" y="413" as="sourcePoint" />
          </mxGeometry>
        </mxCell>
        <mxCell id="fJpas_aMie5ZIC00HAkX-132" style="edgeStyle=none;shape=connector;rounded=0;orthogonalLoop=1;jettySize=auto;html=1;strokeColor=default;align=center;verticalAlign=middle;fontFamily=Helvetica;fontSize=11;fontColor=default;labelBackgroundColor=default;endArrow=none;endFill=0;exitX=1;exitY=0.5;exitDx=0;exitDy=0;" parent="1" source="fJpas_aMie5ZIC00HAkX-128" target="fJpas_aMie5ZIC00HAkX-21" edge="1">
          <mxGeometry relative="1" as="geometry" />
        </mxCell>
        <mxCell id="m6y0govJC5TdCKhgVr8m-15" style="rounded=0;orthogonalLoop=1;jettySize=auto;html=1;endArrow=none;endFill=0;" parent="1" source="fJpas_aMie5ZIC00HAkX-128" target="m6y0govJC5TdCKhgVr8m-14" edge="1">
          <mxGeometry relative="1" as="geometry" />
        </mxCell>
        <mxCell id="fJpas_aMie5ZIC00HAkX-128" value="Is team A of" style="shape=rhombus;perimeter=rhombusPerimeter;whiteSpace=wrap;html=1;align=center;fontFamily=Helvetica;fontSize=11;fontColor=default;labelBackgroundColor=default;" parent="1" vertex="1">
          <mxGeometry x="206.5" y="157" width="90" height="40" as="geometry" />
        </mxCell>
        <mxCell id="fJpas_aMie5ZIC00HAkX-133" style="edgeStyle=none;shape=connector;rounded=0;orthogonalLoop=1;jettySize=auto;html=1;strokeColor=default;align=center;verticalAlign=middle;fontFamily=Helvetica;fontSize=11;fontColor=default;labelBackgroundColor=default;endArrow=none;endFill=0;exitX=1;exitY=0.5;exitDx=0;exitDy=0;" parent="1" source="fJpas_aMie5ZIC00HAkX-129" target="fJpas_aMie5ZIC00HAkX-21" edge="1">
          <mxGeometry relative="1" as="geometry" />
        </mxCell>
        <mxCell id="m6y0govJC5TdCKhgVr8m-17" style="edgeStyle=none;shape=connector;rounded=0;orthogonalLoop=1;jettySize=auto;html=1;strokeColor=default;align=center;verticalAlign=middle;fontFamily=Helvetica;fontSize=11;fontColor=default;labelBackgroundColor=default;endArrow=none;endFill=0;" parent="1" source="fJpas_aMie5ZIC00HAkX-129" target="m6y0govJC5TdCKhgVr8m-16" edge="1">
          <mxGeometry relative="1" as="geometry" />
        </mxCell>
        <mxCell id="fJpas_aMie5ZIC00HAkX-129" value="Is team B of" style="shape=rhombus;perimeter=rhombusPerimeter;whiteSpace=wrap;html=1;align=center;fontFamily=Helvetica;fontSize=11;fontColor=default;labelBackgroundColor=default;" parent="1" vertex="1">
          <mxGeometry x="257.5" y="185" width="90" height="40" as="geometry" />
        </mxCell>
        <mxCell id="fJpas_aMie5ZIC00HAkX-134" value="N" style="text;html=1;align=center;verticalAlign=middle;resizable=0;points=[];autosize=1;strokeColor=none;fillColor=none;fontFamily=Helvetica;fontSize=11;fontColor=default;labelBackgroundColor=default;" parent="1" vertex="1">
          <mxGeometry x="184" y="147" width="30" height="30" as="geometry" />
        </mxCell>
        <mxCell id="fJpas_aMie5ZIC00HAkX-137" value="1" style="text;html=1;align=center;verticalAlign=middle;resizable=0;points=[];autosize=1;strokeColor=none;fillColor=none;fontFamily=Helvetica;fontSize=11;fontColor=default;labelBackgroundColor=default;" parent="1" vertex="1">
          <mxGeometry x="284" y="147" width="30" height="30" as="geometry" />
        </mxCell>
        <mxCell id="fJpas_aMie5ZIC00HAkX-138" value="1" style="text;html=1;align=center;verticalAlign=middle;resizable=0;points=[];autosize=1;strokeColor=none;fillColor=none;fontFamily=Helvetica;fontSize=11;fontColor=default;labelBackgroundColor=default;" parent="1" vertex="1">
          <mxGeometry x="335" y="203" width="30" height="30" as="geometry" />
        </mxCell>
        <mxCell id="fJpas_aMie5ZIC00HAkX-139" value="N" style="text;html=1;align=center;verticalAlign=middle;resizable=0;points=[];autosize=1;strokeColor=none;fillColor=none;fontFamily=Helvetica;fontSize=11;fontColor=default;labelBackgroundColor=default;" parent="1" vertex="1">
          <mxGeometry x="240" y="205" width="30" height="30" as="geometry" />
        </mxCell>
        <mxCell id="fJpas_aMie5ZIC00HAkX-156" style="edgeStyle=none;shape=connector;rounded=0;orthogonalLoop=1;jettySize=auto;html=1;strokeColor=default;align=center;verticalAlign=middle;fontFamily=Helvetica;fontSize=11;fontColor=default;labelBackgroundColor=default;endArrow=none;endFill=0;exitX=1;exitY=0.5;exitDx=0;exitDy=0;" parent="1" source="fJpas_aMie5ZIC00HAkX-155" target="fJpas_aMie5ZIC00HAkX-21" edge="1">
          <mxGeometry relative="1" as="geometry" />
        </mxCell>
        <mxCell id="fJpas_aMie5ZIC00HAkX-157" style="edgeStyle=none;shape=connector;rounded=0;orthogonalLoop=1;jettySize=auto;html=1;strokeColor=default;align=center;verticalAlign=middle;fontFamily=Helvetica;fontSize=11;fontColor=default;labelBackgroundColor=default;endArrow=none;endFill=0;exitX=0;exitY=0.5;exitDx=0;exitDy=0;" parent="1" source="fJpas_aMie5ZIC00HAkX-155" target="fJpas_aMie5ZIC00HAkX-1" edge="1">
          <mxGeometry relative="1" as="geometry" />
        </mxCell>
        <mxCell id="fJpas_aMie5ZIC00HAkX-155" value="Is captain of" style="shape=rhombus;perimeter=rhombusPerimeter;whiteSpace=wrap;html=1;align=center;fontFamily=Helvetica;fontSize=11;fontColor=default;labelBackgroundColor=default;" parent="1" vertex="1">
          <mxGeometry x="349" y="-80" width="120" height="60" as="geometry" />
        </mxCell>
        <mxCell id="fJpas_aMie5ZIC00HAkX-158" value="1" style="text;html=1;align=center;verticalAlign=middle;resizable=0;points=[];autosize=1;strokeColor=none;fillColor=none;fontFamily=Helvetica;fontSize=11;fontColor=default;labelBackgroundColor=default;" parent="1" vertex="1">
          <mxGeometry x="449" y="-75" width="30" height="30" as="geometry" />
        </mxCell>
        <mxCell id="fJpas_aMie5ZIC00HAkX-159" value="1" style="text;html=1;align=center;verticalAlign=middle;resizable=0;points=[];autosize=1;strokeColor=none;fillColor=none;fontFamily=Helvetica;fontSize=11;fontColor=default;labelBackgroundColor=default;" parent="1" vertex="1">
          <mxGeometry x="334" y="-75" width="30" height="30" as="geometry" />
        </mxCell>
        <mxCell id="lP6sr1MbRHoWhHon_gvg-2" style="rounded=0;orthogonalLoop=1;jettySize=auto;html=1;entryX=1;entryY=0.25;entryDx=0;entryDy=0;endArrow=none;endFill=0;exitX=0.5;exitY=0;exitDx=0;exitDy=0;" parent="1" source="lP6sr1MbRHoWhHon_gvg-1" target="fJpas_aMie5ZIC00HAkX-38" edge="1">
          <mxGeometry relative="1" as="geometry" />
        </mxCell>
        <mxCell id="lP6sr1MbRHoWhHon_gvg-4" style="edgeStyle=none;shape=connector;rounded=0;orthogonalLoop=1;jettySize=auto;html=1;entryX=1;entryY=0.75;entryDx=0;entryDy=0;strokeColor=default;align=center;verticalAlign=middle;fontFamily=Helvetica;fontSize=11;fontColor=default;labelBackgroundColor=default;endArrow=none;endFill=0;exitX=0.5;exitY=1;exitDx=0;exitDy=0;" parent="1" source="lP6sr1MbRHoWhHon_gvg-1" target="fJpas_aMie5ZIC00HAkX-38" edge="1">
          <mxGeometry relative="1" as="geometry" />
        </mxCell>
        <mxCell id="lP6sr1MbRHoWhHon_gvg-1" value="Is parent region of" style="shape=rhombus;perimeter=rhombusPerimeter;whiteSpace=wrap;html=1;align=center;fontFamily=Helvetica;fontSize=11;fontColor=default;labelBackgroundColor=default;" parent="1" vertex="1">
          <mxGeometry x="926" y="527" width="120" height="84" as="geometry" />
        </mxCell>
        <mxCell id="lP6sr1MbRHoWhHon_gvg-5" value="N" style="text;html=1;align=center;verticalAlign=middle;resizable=0;points=[];autosize=1;strokeColor=none;fillColor=none;fontFamily=Helvetica;fontSize=11;fontColor=default;labelBackgroundColor=default;" parent="1" vertex="1">
          <mxGeometry x="979" y="606" width="30" height="30" as="geometry" />
        </mxCell>
        <mxCell id="lP6sr1MbRHoWhHon_gvg-6" value="1" style="text;html=1;align=center;verticalAlign=middle;resizable=0;points=[];autosize=1;strokeColor=none;fillColor=none;fontFamily=Helvetica;fontSize=11;fontColor=default;labelBackgroundColor=default;" parent="1" vertex="1">
          <mxGeometry x="976" y="497" width="30" height="30" as="geometry" />
        </mxCell>
        <mxCell id="lP6sr1MbRHoWhHon_gvg-7" value="Trophy" style="shape=ext;margin=3;double=1;whiteSpace=wrap;html=1;align=center;fontFamily=Helvetica;fontSize=11;fontColor=default;labelBackgroundColor=default;" parent="1" vertex="1">
          <mxGeometry x="456" y="367" width="100" height="40" as="geometry" />
        </mxCell>
        <mxCell id="lP6sr1MbRHoWhHon_gvg-9" style="edgeStyle=none;rounded=0;orthogonalLoop=1;jettySize=auto;html=1;strokeColor=default;align=center;verticalAlign=middle;fontFamily=Helvetica;fontSize=11;fontColor=default;labelBackgroundColor=default;endArrow=none;endFill=0;exitX=0;exitY=0.5;exitDx=0;exitDy=0;entryX=1;entryY=0;entryDx=0;entryDy=0;" parent="1" source="m6y0govJC5TdCKhgVr8m-12" target="lP6sr1MbRHoWhHon_gvg-7" edge="1">
          <mxGeometry relative="1" as="geometry">
            <mxPoint x="510" y="361" as="sourcePoint" />
          </mxGeometry>
        </mxCell>
        <mxCell id="lP6sr1MbRHoWhHon_gvg-10" style="edgeStyle=none;shape=connector;rounded=0;orthogonalLoop=1;jettySize=auto;html=1;strokeColor=default;align=center;verticalAlign=middle;fontFamily=Helvetica;fontSize=11;fontColor=default;labelBackgroundColor=default;endArrow=none;endFill=0;exitX=1;exitY=0.5;exitDx=0;exitDy=0;" parent="1" source="m6y0govJC5TdCKhgVr8m-12" target="fJpas_aMie5ZIC00HAkX-21" edge="1">
          <mxGeometry relative="1" as="geometry">
            <mxPoint x="630" y="90" as="sourcePoint" />
          </mxGeometry>
        </mxCell>
        <mxCell id="lP6sr1MbRHoWhHon_gvg-12" style="edgeStyle=none;shape=connector;rounded=0;orthogonalLoop=1;jettySize=auto;html=1;strokeColor=default;align=center;verticalAlign=middle;fontFamily=Helvetica;fontSize=11;fontColor=default;labelBackgroundColor=default;endArrow=none;endFill=0;" parent="1" source="lP6sr1MbRHoWhHon_gvg-11" target="lP6sr1MbRHoWhHon_gvg-7" edge="1">
          <mxGeometry relative="1" as="geometry" />
        </mxCell>
        <mxCell id="lP6sr1MbRHoWhHon_gvg-11" value="&lt;span style=&quot;border-bottom: 1px dotted&quot;&gt;trophyName&lt;/span&gt;" style="ellipse;whiteSpace=wrap;html=1;align=center;fontFamily=Helvetica;fontSize=11;fontColor=default;labelBackgroundColor=default;" parent="1" vertex="1">
          <mxGeometry x="466" y="424" width="80" height="40" as="geometry" />
        </mxCell>
        <mxCell id="lP6sr1MbRHoWhHon_gvg-14" style="edgeStyle=none;shape=connector;rounded=0;orthogonalLoop=1;jettySize=auto;html=1;strokeColor=default;align=center;verticalAlign=middle;fontFamily=Helvetica;fontSize=11;fontColor=default;labelBackgroundColor=default;endArrow=none;endFill=0;" parent="1" source="lP6sr1MbRHoWhHon_gvg-13" target="lP6sr1MbRHoWhHon_gvg-7" edge="1">
          <mxGeometry relative="1" as="geometry" />
        </mxCell>
        <mxCell id="lP6sr1MbRHoWhHon_gvg-13" value="dateAwarded" style="ellipse;whiteSpace=wrap;html=1;align=center;fontFamily=Helvetica;fontSize=11;fontColor=default;labelBackgroundColor=default;" parent="1" vertex="1">
          <mxGeometry x="561.5" y="424" width="80" height="40" as="geometry" />
        </mxCell>
        <mxCell id="lP6sr1MbRHoWhHon_gvg-15" value="N" style="text;html=1;align=center;verticalAlign=middle;resizable=0;points=[];autosize=1;strokeColor=none;fillColor=none;fontFamily=Helvetica;fontSize=11;fontColor=default;labelBackgroundColor=default;" parent="1" vertex="1">
          <mxGeometry x="611.5" y="254" width="30" height="30" as="geometry" />
        </mxCell>
        <mxCell id="lP6sr1MbRHoWhHon_gvg-16" value="1" style="text;html=1;align=center;verticalAlign=middle;resizable=0;points=[];autosize=1;strokeColor=none;fillColor=none;fontFamily=Helvetica;fontSize=11;fontColor=default;labelBackgroundColor=default;" parent="1" vertex="1">
          <mxGeometry x="726" y="251" width="30" height="30" as="geometry" />
        </mxCell>
        <mxCell id="m6y0govJC5TdCKhgVr8m-5" style="rounded=0;orthogonalLoop=1;jettySize=auto;html=1;entryX=0;entryY=1;entryDx=0;entryDy=0;shape=link;exitX=1;exitY=0.5;exitDx=0;exitDy=0;" parent="1" source="m6y0govJC5TdCKhgVr8m-11" target="lP6sr1MbRHoWhHon_gvg-7" edge="1">
          <mxGeometry relative="1" as="geometry">
            <mxPoint x="798.5381165919284" y="743.269058295964" as="sourcePoint" />
          </mxGeometry>
        </mxCell>
        <mxCell id="m6y0govJC5TdCKhgVr8m-12" value="Is awarded to" style="shape=rhombus;perimeter=rhombusPerimeter;whiteSpace=wrap;html=1;align=center;" parent="1" vertex="1">
          <mxGeometry x="628" y="257" width="120" height="60" as="geometry" />
        </mxCell>
        <mxCell id="m6y0govJC5TdCKhgVr8m-14" value="result" style="ellipse;whiteSpace=wrap;html=1;align=center;" parent="1" vertex="1">
          <mxGeometry x="221" y="123" width="61" height="28" as="geometry" />
        </mxCell>
        <mxCell id="m6y0govJC5TdCKhgVr8m-16" value="result" style="ellipse;whiteSpace=wrap;html=1;align=center;" parent="1" vertex="1">
          <mxGeometry x="272" y="230" width="61" height="28" as="geometry" />
        </mxCell>
        <mxCell id="NF3LTUQ_bPjJrq3eggiO-5" value="" style="group" parent="1" vertex="1" connectable="0">
          <mxGeometry x="315" y="281" width="170" height="62" as="geometry" />
        </mxCell>
        <mxCell id="fJpas_aMie5ZIC00HAkX-104" value="Compete in" style="shape=rhombus;perimeter=rhombusPerimeter;whiteSpace=wrap;html=1;align=center;fontFamily=Helvetica;fontSize=11;fontColor=default;labelBackgroundColor=default;" parent="NF3LTUQ_bPjJrq3eggiO-5" vertex="1">
          <mxGeometry x="32.5" width="120" height="60" as="geometry" />
        </mxCell>
        <mxCell id="fJpas_aMie5ZIC00HAkX-107" value="M" style="text;html=1;align=center;verticalAlign=middle;resizable=0;points=[];autosize=1;strokeColor=none;fillColor=none;fontFamily=Helvetica;fontSize=11;fontColor=default;labelBackgroundColor=default;" parent="NF3LTUQ_bPjJrq3eggiO-5" vertex="1">
          <mxGeometry x="138" width="30" height="30" as="geometry" />
        </mxCell>
        <mxCell id="fJpas_aMie5ZIC00HAkX-108" value="&lt;div&gt;N&lt;/div&gt;" style="text;html=1;align=center;verticalAlign=middle;resizable=0;points=[];autosize=1;strokeColor=none;fillColor=none;fontFamily=Helvetica;fontSize=11;fontColor=default;labelBackgroundColor=default;" parent="NF3LTUQ_bPjJrq3eggiO-5" vertex="1">
          <mxGeometry x="9" y="4" width="30" height="30" as="geometry" />
        </mxCell>
        <mxCell id="NF3LTUQ_bPjJrq3eggiO-6" value="" style="group" parent="1" vertex="1" connectable="0">
          <mxGeometry x="160" y="433" width="151.5" height="60" as="geometry" />
        </mxCell>
        <mxCell id="m6y0govJC5TdCKhgVr8m-7" value="1" style="text;html=1;align=center;verticalAlign=middle;resizable=0;points=[];autosize=1;strokeColor=none;fillColor=none;" parent="NF3LTUQ_bPjJrq3eggiO-6" vertex="1">
          <mxGeometry x="19" y="34" width="25" height="26" as="geometry" />
        </mxCell>
        <mxCell id="m6y0govJC5TdCKhgVr8m-11" value="&lt;div&gt;Has&lt;/div&gt;" style="shape=rhombus;double=1;perimeter=rhombusPerimeter;whiteSpace=wrap;html=1;align=center;fontFamily=Helvetica;fontSize=11;fontColor=default;labelBackgroundColor=default;" parent="NF3LTUQ_bPjJrq3eggiO-6" vertex="1">
          <mxGeometry x="31.5" width="120" height="60" as="geometry" />
        </mxCell>
        <mxCell id="NF3LTUQ_bPjJrq3eggiO-7" style="edgeStyle=none;shape=connector;rounded=0;orthogonalLoop=1;jettySize=auto;html=1;exitX=0;exitY=0.5;exitDx=0;exitDy=0;strokeColor=default;align=center;verticalAlign=middle;fontFamily=Helvetica;fontSize=11;fontColor=default;labelBackgroundColor=default;endArrow=none;endFill=0;" parent="1" source="fJpas_aMie5ZIC00HAkX-81" target="fJpas_aMie5ZIC00HAkX-81" edge="1">
          <mxGeometry relative="1" as="geometry" />
        </mxCell>
        <mxCell id="m6y0govJC5TdCKhgVr8m-10" value="1" style="text;html=1;align=center;verticalAlign=middle;resizable=0;points=[];autosize=1;strokeColor=none;fillColor=none;" parent="1" vertex="1">
          <mxGeometry x="305.5" y="467" width="25" height="26" as="geometry" />
        </mxCell>
        <mxCell id="almNn-rgEYb41o_lLEZz-1" value="Major Region" style="text;html=1;align=center;verticalAlign=middle;resizable=0;points=[];autosize=1;strokeColor=none;fillColor=none;" parent="1" vertex="1">
          <mxGeometry x="882" y="506" width="89" height="26" as="geometry" />
        </mxCell>
        <mxCell id="almNn-rgEYb41o_lLEZz-2" value="Minor Region" style="text;html=1;align=center;verticalAlign=middle;resizable=0;points=[];autosize=1;strokeColor=none;fillColor=none;" parent="1" vertex="1">
          <mxGeometry x="869" y="606" width="89" height="26" as="geometry" />
        </mxCell>
        <mxCell id="GLH18F7WEQvQGdg0PGkz-2" style="rounded=0;orthogonalLoop=1;jettySize=auto;html=1;endArrow=none;endFill=0;" parent="1" source="GLH18F7WEQvQGdg0PGkz-1" target="fJpas_aMie5ZIC00HAkX-104" edge="1">
          <mxGeometry relative="1" as="geometry" />
        </mxCell>
        <mxCell id="GLH18F7WEQvQGdg0PGkz-1" value="rank" style="ellipse;whiteSpace=wrap;html=1;align=center;" parent="1" vertex="1">
          <mxGeometry x="342" y="349" width="61" height="28" as="geometry" />
        </mxCell>
        <mxCell id="GLH18F7WEQvQGdg0PGkz-5" style="rounded=0;orthogonalLoop=1;jettySize=auto;html=1;endArrow=none;endFill=0;" parent="1" source="GLH18F7WEQvQGdg0PGkz-3" target="fJpas_aMie5ZIC00HAkX-21" edge="1">
          <mxGeometry relative="1" as="geometry" />
        </mxCell>
        <mxCell id="GLH18F7WEQvQGdg0PGkz-3" value="numberOfTrophy" style="ellipse;whiteSpace=wrap;html=1;align=center;dashed=1;fontFamily=Helvetica;fontSize=11;fontColor=default;labelBackgroundColor=default;" parent="1" vertex="1">
          <mxGeometry x="884" y="88" width="100" height="40" as="geometry" />
        </mxCell>
        <mxCell id="GLH18F7WEQvQGdg0PGkz-7" style="edgeStyle=none;shape=connector;rounded=0;orthogonalLoop=1;jettySize=auto;html=1;strokeColor=default;align=center;verticalAlign=middle;fontFamily=Helvetica;fontSize=11;fontColor=default;labelBackgroundColor=default;endArrow=none;endFill=0;" parent="1" source="GLH18F7WEQvQGdg0PGkz-6" target="fJpas_aMie5ZIC00HAkX-21" edge="1">
          <mxGeometry relative="1" as="geometry" />
        </mxCell>
        <mxCell id="GLH18F7WEQvQGdg0PGkz-6" value="numberOfPlayer" style="ellipse;whiteSpace=wrap;html=1;align=center;dashed=1;fontFamily=Helvetica;fontSize=11;fontColor=default;labelBackgroundColor=default;" parent="1" vertex="1">
          <mxGeometry x="863.5" y="132" width="100" height="40" as="geometry" />
        </mxCell>
        <mxCell id="GLH18F7WEQvQGdg0PGkz-9" style="edgeStyle=none;shape=connector;rounded=0;orthogonalLoop=1;jettySize=auto;html=1;strokeColor=default;align=center;verticalAlign=middle;fontFamily=Helvetica;fontSize=11;fontColor=default;labelBackgroundColor=default;endArrow=none;endFill=0;" parent="1" source="GLH18F7WEQvQGdg0PGkz-8" target="fJpas_aMie5ZIC00HAkX-38" edge="1">
          <mxGeometry relative="1" as="geometry" />
        </mxCell>
        <mxCell id="GLH18F7WEQvQGdg0PGkz-8" value="description" style="ellipse;whiteSpace=wrap;html=1;align=center;fontFamily=Helvetica;fontSize=11;fontColor=default;labelBackgroundColor=default;" parent="1" vertex="1">
          <mxGeometry x="716" y="484" width="80" height="40" as="geometry" />
        </mxCell>
        <mxCell id="GLH18F7WEQvQGdg0PGkz-11" style="edgeStyle=none;shape=connector;rounded=0;orthogonalLoop=1;jettySize=auto;html=1;strokeColor=default;align=center;verticalAlign=middle;fontFamily=Helvetica;fontSize=11;fontColor=default;labelBackgroundColor=default;endArrow=none;endFill=0;" parent="1" source="GLH18F7WEQvQGdg0PGkz-10" target="fJpas_aMie5ZIC00HAkX-38" edge="1">
          <mxGeometry relative="1" as="geometry" />
        </mxCell>
        <mxCell id="GLH18F7WEQvQGdg0PGkz-10" value="numberOfTeams" style="ellipse;whiteSpace=wrap;html=1;align=center;dashed=1;fontFamily=Helvetica;fontSize=11;fontColor=default;labelBackgroundColor=default;" parent="1" vertex="1">
          <mxGeometry x="676.5" y="599" width="100" height="40" as="geometry" />
        </mxCell>
        <mxCell id="wX9nulocx6VRCnXDJnAP-8" style="edgeStyle=none;shape=connector;rounded=0;orthogonalLoop=1;jettySize=auto;html=1;strokeColor=default;align=center;verticalAlign=middle;fontFamily=Helvetica;fontSize=11;fontColor=default;labelBackgroundColor=default;endArrow=none;endFill=0;exitX=1;exitY=0.5;exitDx=0;exitDy=0;" parent="1" source="XT3MhefaFS9jrLEFvtJ--24" target="fJpas_aMie5ZIC00HAkX-47" edge="1">
          <mxGeometry relative="1" as="geometry">
            <mxPoint x="-117.99999999999977" y="586" as="sourcePoint" />
          </mxGeometry>
        </mxCell>
        <mxCell id="wX9nulocx6VRCnXDJnAP-9" value="N" style="text;html=1;align=center;verticalAlign=middle;resizable=0;points=[];autosize=1;strokeColor=none;fillColor=none;fontFamily=Helvetica;fontSize=11;fontColor=default;labelBackgroundColor=default;" parent="1" vertex="1">
          <mxGeometry x="-255" y="586" width="26" height="25" as="geometry" />
        </mxCell>
        <mxCell id="wX9nulocx6VRCnXDJnAP-10" value="1" style="text;html=1;align=center;verticalAlign=middle;resizable=0;points=[];autosize=1;strokeColor=none;fillColor=none;fontFamily=Helvetica;fontSize=11;fontColor=default;labelBackgroundColor=default;" parent="1" vertex="1">
          <mxGeometry x="-126" y="587" width="24" height="25" as="geometry" />
        </mxCell>
        <mxCell id="wX9nulocx6VRCnXDJnAP-12" value="" style="group" parent="1" vertex="1" connectable="0">
          <mxGeometry x="-74.75" y="383" width="120" height="107" as="geometry" />
        </mxCell>
        <mxCell id="HjT3Nyh9t_DWf_qYVlv3-1" value="" style="group" parent="wX9nulocx6VRCnXDJnAP-12" vertex="1" connectable="0">
          <mxGeometry x="-58.25" y="15" width="170" height="60" as="geometry" />
        </mxCell>
        <mxCell id="fJpas_aMie5ZIC00HAkX-125" value="Took place in" style="shape=rhombus;perimeter=rhombusPerimeter;whiteSpace=wrap;html=1;align=center;fontFamily=Helvetica;fontSize=11;fontColor=default;labelBackgroundColor=default;" parent="HjT3Nyh9t_DWf_qYVlv3-1" vertex="1">
          <mxGeometry x="27.5" width="120" height="60" as="geometry" />
        </mxCell>
        <mxCell id="fJpas_aMie5ZIC00HAkX-140" value="N" style="text;html=1;align=center;verticalAlign=middle;resizable=0;points=[];autosize=1;strokeColor=none;fillColor=none;fontFamily=Helvetica;fontSize=11;fontColor=default;labelBackgroundColor=default;" parent="HjT3Nyh9t_DWf_qYVlv3-1" vertex="1">
          <mxGeometry y="22" width="30" height="30" as="geometry" />
        </mxCell>
        <mxCell id="fJpas_aMie5ZIC00HAkX-141" value="1" style="text;html=1;align=center;verticalAlign=middle;resizable=0;points=[];autosize=1;strokeColor=none;fillColor=none;fontFamily=Helvetica;fontSize=11;fontColor=default;labelBackgroundColor=default;" parent="HjT3Nyh9t_DWf_qYVlv3-1" vertex="1">
          <mxGeometry x="140" y="30" width="30" height="30" as="geometry" />
        </mxCell>
        <mxCell id="wX9nulocx6VRCnXDJnAP-24" style="edgeStyle=none;shape=connector;rounded=0;orthogonalLoop=1;jettySize=auto;html=1;strokeColor=default;align=center;verticalAlign=middle;fontFamily=Helvetica;fontSize=11;fontColor=default;labelBackgroundColor=default;endArrow=none;endFill=0;" parent="1" source="wX9nulocx6VRCnXDJnAP-19" target="fJpas_aMie5ZIC00HAkX-120" edge="1">
          <mxGeometry relative="1" as="geometry" />
        </mxCell>
        <mxCell id="wX9nulocx6VRCnXDJnAP-19" value="d" style="ellipse;whiteSpace=wrap;html=1;aspect=fixed;fontFamily=Helvetica;fontSize=11;fontColor=default;labelBackgroundColor=default;" parent="1" vertex="1">
          <mxGeometry x="-206" y="277" width="40" height="40" as="geometry" />
        </mxCell>
        <mxCell id="wX9nulocx6VRCnXDJnAP-23" style="edgeStyle=none;shape=connector;rounded=0;orthogonalLoop=1;jettySize=auto;html=1;strokeColor=default;align=center;verticalAlign=middle;fontFamily=Helvetica;fontSize=11;fontColor=default;labelBackgroundColor=default;endArrow=none;endFill=0;" parent="1" source="wX9nulocx6VRCnXDJnAP-20" target="wX9nulocx6VRCnXDJnAP-19" edge="1">
          <mxGeometry relative="1" as="geometry" />
        </mxCell>
        <mxCell id="XT3MhefaFS9jrLEFvtJ--3" style="rounded=0;orthogonalLoop=1;jettySize=auto;html=1;endArrow=none;endFill=0;shape=link;" parent="1" source="wX9nulocx6VRCnXDJnAP-20" target="XT3MhefaFS9jrLEFvtJ--2" edge="1">
          <mxGeometry relative="1" as="geometry" />
        </mxCell>
        <mxCell id="wX9nulocx6VRCnXDJnAP-20" value="Group Stage Match" style="whiteSpace=wrap;html=1;align=center;fontFamily=Helvetica;fontSize=11;fontColor=default;labelBackgroundColor=default;flipV=1;" parent="1" vertex="1">
          <mxGeometry x="-379.5" y="277" width="65" height="40" as="geometry" />
        </mxCell>
        <mxCell id="wX9nulocx6VRCnXDJnAP-22" style="edgeStyle=none;shape=connector;rounded=0;orthogonalLoop=1;jettySize=auto;html=1;strokeColor=default;align=center;verticalAlign=middle;fontFamily=Helvetica;fontSize=11;fontColor=default;labelBackgroundColor=default;endArrow=none;endFill=0;" parent="1" source="wX9nulocx6VRCnXDJnAP-21" target="wX9nulocx6VRCnXDJnAP-19" edge="1">
          <mxGeometry relative="1" as="geometry" />
        </mxCell>
        <mxCell id="wX9nulocx6VRCnXDJnAP-21" value="Knockout Stage Match" style="whiteSpace=wrap;html=1;align=center;fontFamily=Helvetica;fontSize=11;fontColor=default;labelBackgroundColor=default;flipV=1;" parent="1" vertex="1">
          <mxGeometry x="-218.5" y="348" width="65" height="40" as="geometry" />
        </mxCell>
        <mxCell id="wX9nulocx6VRCnXDJnAP-31" style="edgeStyle=none;shape=connector;rounded=0;orthogonalLoop=1;jettySize=auto;html=1;strokeColor=default;align=center;verticalAlign=middle;fontFamily=Helvetica;fontSize=11;fontColor=default;labelBackgroundColor=default;endArrow=none;endFill=0;" parent="1" source="wX9nulocx6VRCnXDJnAP-30" target="fJpas_aMie5ZIC00HAkX-120" edge="1">
          <mxGeometry relative="1" as="geometry" />
        </mxCell>
        <mxCell id="wX9nulocx6VRCnXDJnAP-30" value="bestOf" style="ellipse;whiteSpace=wrap;html=1;align=center;fontFamily=Helvetica;fontSize=11;fontColor=default;labelBackgroundColor=default;flipV=1;" parent="1" vertex="1">
          <mxGeometry x="-44.75" y="330.5" width="60" height="40" as="geometry" />
        </mxCell>
        <mxCell id="XT3MhefaFS9jrLEFvtJ--1" value="" style="group" parent="1" vertex="1" connectable="0">
          <mxGeometry x="-407" y="367" width="120" height="107" as="geometry" />
        </mxCell>
        <mxCell id="XT3MhefaFS9jrLEFvtJ--2" value="Took place in" style="shape=rhombus;perimeter=rhombusPerimeter;whiteSpace=wrap;html=1;align=center;fontFamily=Helvetica;fontSize=11;fontColor=default;labelBackgroundColor=default;" parent="XT3MhefaFS9jrLEFvtJ--1" vertex="1">
          <mxGeometry y="19" width="120" height="60" as="geometry" />
        </mxCell>
        <mxCell id="XT3MhefaFS9jrLEFvtJ--9" value="N" style="text;html=1;align=center;verticalAlign=middle;resizable=0;points=[];autosize=1;strokeColor=none;fillColor=none;fontFamily=Helvetica;fontSize=11;fontColor=default;labelBackgroundColor=default;" parent="XT3MhefaFS9jrLEFvtJ--1" vertex="1">
          <mxGeometry x="59.5" width="26" height="25" as="geometry" />
        </mxCell>
        <mxCell id="XT3MhefaFS9jrLEFvtJ--7" style="edgeStyle=none;shape=connector;rounded=0;orthogonalLoop=1;jettySize=auto;html=1;strokeColor=default;align=center;verticalAlign=middle;fontFamily=Helvetica;fontSize=11;fontColor=default;labelBackgroundColor=default;endArrow=none;endFill=0;" parent="1" source="XT3MhefaFS9jrLEFvtJ--5" target="XT3MhefaFS9jrLEFvtJ--2" edge="1">
          <mxGeometry relative="1" as="geometry" />
        </mxCell>
        <mxCell id="XT3MhefaFS9jrLEFvtJ--5" value="Group" style="whiteSpace=wrap;html=1;align=center;fontFamily=Helvetica;fontSize=11;fontColor=default;labelBackgroundColor=default;flipV=1;" parent="1" vertex="1">
          <mxGeometry x="-379.5" y="566" width="65" height="40" as="geometry" />
        </mxCell>
        <mxCell id="XT3MhefaFS9jrLEFvtJ--6" style="edgeStyle=none;shape=link;rounded=0;orthogonalLoop=1;jettySize=auto;html=1;strokeColor=default;align=center;verticalAlign=middle;fontFamily=Helvetica;fontSize=11;fontColor=default;labelBackgroundColor=default;endArrow=none;endFill=0;exitX=0;exitY=0.5;exitDx=0;exitDy=0;" parent="1" source="XT3MhefaFS9jrLEFvtJ--24" target="XT3MhefaFS9jrLEFvtJ--5" edge="1">
          <mxGeometry relative="1" as="geometry">
            <mxPoint x="-237.29824561403484" y="586.3508771929824" as="sourcePoint" />
          </mxGeometry>
        </mxCell>
        <mxCell id="XT3MhefaFS9jrLEFvtJ--8" value="1" style="text;html=1;align=center;verticalAlign=middle;resizable=0;points=[];autosize=1;strokeColor=none;fillColor=none;fontFamily=Helvetica;fontSize=11;fontColor=default;labelBackgroundColor=default;" parent="1" vertex="1">
          <mxGeometry x="-354" y="441" width="24" height="25" as="geometry" />
        </mxCell>
        <mxCell id="XT3MhefaFS9jrLEFvtJ--13" style="edgeStyle=none;shape=link;rounded=0;orthogonalLoop=1;jettySize=auto;html=1;entryX=0;entryY=0.5;entryDx=0;entryDy=0;strokeColor=default;align=center;verticalAlign=middle;fontFamily=Helvetica;fontSize=11;fontColor=default;labelBackgroundColor=default;endArrow=none;endFill=0;" parent="1" target="XT3MhefaFS9jrLEFvtJ--12" edge="1">
          <mxGeometry relative="1" as="geometry">
            <mxPoint x="-229.00222222222217" y="205" as="sourcePoint" />
          </mxGeometry>
        </mxCell>
        <mxCell id="XT3MhefaFS9jrLEFvtJ--10" value="Game" style="whiteSpace=wrap;html=1;align=center;fontFamily=Helvetica;fontSize=11;fontColor=default;labelBackgroundColor=default;" parent="1" vertex="1">
          <mxGeometry x="-332" y="170" width="100" height="40" as="geometry" />
        </mxCell>
        <mxCell id="XT3MhefaFS9jrLEFvtJ--15" style="edgeStyle=none;shape=connector;rounded=0;orthogonalLoop=1;jettySize=auto;html=1;strokeColor=default;align=center;verticalAlign=middle;fontFamily=Helvetica;fontSize=11;fontColor=default;labelBackgroundColor=default;endArrow=none;endFill=0;exitX=1;exitY=0.5;exitDx=0;exitDy=0;" parent="1" source="XT3MhefaFS9jrLEFvtJ--12" target="fJpas_aMie5ZIC00HAkX-120" edge="1">
          <mxGeometry relative="1" as="geometry" />
        </mxCell>
        <mxCell id="XT3MhefaFS9jrLEFvtJ--12" value="Be a part of" style="shape=rhombus;perimeter=rhombusPerimeter;whiteSpace=wrap;html=1;align=center;fontFamily=Helvetica;fontSize=11;fontColor=default;labelBackgroundColor=default;" parent="1" vertex="1">
          <mxGeometry x="-194.28" y="207" width="89" height="46" as="geometry" />
        </mxCell>
        <mxCell id="XT3MhefaFS9jrLEFvtJ--16" value="1" style="text;html=1;align=center;verticalAlign=middle;resizable=0;points=[];autosize=1;strokeColor=none;fillColor=none;fontFamily=Helvetica;fontSize=11;fontColor=default;labelBackgroundColor=default;" parent="1" vertex="1">
          <mxGeometry x="-117.78" y="208" width="24" height="25" as="geometry" />
        </mxCell>
        <mxCell id="XT3MhefaFS9jrLEFvtJ--17" value="N" style="text;html=1;align=center;verticalAlign=middle;resizable=0;points=[];autosize=1;strokeColor=none;fillColor=none;fontFamily=Helvetica;fontSize=11;fontColor=default;labelBackgroundColor=default;" parent="1" vertex="1">
          <mxGeometry x="-206.78" y="205" width="26" height="25" as="geometry" />
        </mxCell>
        <mxCell id="XT3MhefaFS9jrLEFvtJ--19" style="edgeStyle=none;shape=connector;rounded=0;orthogonalLoop=1;jettySize=auto;html=1;strokeColor=default;align=center;verticalAlign=middle;fontFamily=Helvetica;fontSize=11;fontColor=default;labelBackgroundColor=default;endArrow=none;endFill=0;exitX=1;exitY=0.5;exitDx=0;exitDy=0;" parent="1" source="XT3MhefaFS9jrLEFvtJ--18" target="fJpas_aMie5ZIC00HAkX-1" edge="1">
          <mxGeometry relative="1" as="geometry" />
        </mxCell>
        <mxCell id="XT3MhefaFS9jrLEFvtJ--20" style="edgeStyle=none;shape=connector;rounded=0;orthogonalLoop=1;jettySize=auto;html=1;strokeColor=default;align=center;verticalAlign=middle;fontFamily=Helvetica;fontSize=11;fontColor=default;labelBackgroundColor=default;endArrow=none;endFill=0;exitX=0;exitY=0.5;exitDx=0;exitDy=0;" parent="1" source="XT3MhefaFS9jrLEFvtJ--18" target="XT3MhefaFS9jrLEFvtJ--10" edge="1">
          <mxGeometry relative="1" as="geometry" />
        </mxCell>
        <mxCell id="XT3MhefaFS9jrLEFvtJ--18" value="Play in" style="shape=rhombus;perimeter=rhombusPerimeter;whiteSpace=wrap;html=1;align=center;fontFamily=Helvetica;fontSize=11;fontColor=default;labelBackgroundColor=default;" parent="1" vertex="1">
          <mxGeometry x="-194" y="113.5" width="89" height="46" as="geometry" />
        </mxCell>
        <mxCell id="XT3MhefaFS9jrLEFvtJ--21" value="N" style="text;html=1;align=center;verticalAlign=middle;resizable=0;points=[];autosize=1;strokeColor=none;fillColor=none;fontFamily=Helvetica;fontSize=11;fontColor=default;labelBackgroundColor=default;" parent="1" vertex="1">
          <mxGeometry x="-207" y="135.5" width="26" height="25" as="geometry" />
        </mxCell>
        <mxCell id="XT3MhefaFS9jrLEFvtJ--22" value="M" style="text;html=1;align=center;verticalAlign=middle;resizable=0;points=[];autosize=1;strokeColor=none;fillColor=none;fontFamily=Helvetica;fontSize=11;fontColor=default;labelBackgroundColor=default;" parent="1" vertex="1">
          <mxGeometry x="-103.5" y="132.5" width="27" height="25" as="geometry" />
        </mxCell>
        <mxCell id="XT3MhefaFS9jrLEFvtJ--23" value="" style="group" parent="1" vertex="1" connectable="0">
          <mxGeometry x="-239" y="537" width="120" height="107" as="geometry" />
        </mxCell>
        <mxCell id="XT3MhefaFS9jrLEFvtJ--24" value="Was a group in" style="shape=rhombus;perimeter=rhombusPerimeter;whiteSpace=wrap;html=1;align=center;fontFamily=Helvetica;fontSize=11;fontColor=default;labelBackgroundColor=default;" parent="XT3MhefaFS9jrLEFvtJ--23" vertex="1">
          <mxGeometry y="19" width="120" height="60" as="geometry" />
        </mxCell>
        <mxCell id="XT3MhefaFS9jrLEFvtJ--27" style="edgeStyle=none;shape=connector;rounded=0;orthogonalLoop=1;jettySize=auto;html=1;strokeColor=default;align=center;verticalAlign=middle;fontFamily=Helvetica;fontSize=11;fontColor=default;labelBackgroundColor=default;endArrow=none;endFill=0;exitX=0;exitY=0.5;exitDx=0;exitDy=0;" parent="1" source="XT3MhefaFS9jrLEFvtJ--25" target="XT3MhefaFS9jrLEFvtJ--5" edge="1">
          <mxGeometry relative="1" as="geometry">
            <Array as="points">
              <mxPoint x="-418" y="-132" />
              <mxPoint x="-420" y="587" />
            </Array>
          </mxGeometry>
        </mxCell>
        <mxCell id="XT3MhefaFS9jrLEFvtJ--38" style="edgeStyle=orthogonalEdgeStyle;rounded=0;hachureGap=4;orthogonalLoop=1;jettySize=auto;html=1;fontFamily=Architects Daughter;fontSource=https%3A%2F%2Ffonts.googleapis.com%2Fcss%3Ffamily%3DArchitects%2BDaughter;endArrow=none;endFill=0;" parent="1" source="XT3MhefaFS9jrLEFvtJ--25" target="fJpas_aMie5ZIC00HAkX-21" edge="1">
          <mxGeometry relative="1" as="geometry" />
        </mxCell>
        <mxCell id="XT3MhefaFS9jrLEFvtJ--25" value="Belongs to" style="shape=rhombus;perimeter=rhombusPerimeter;whiteSpace=wrap;html=1;align=center;fontFamily=Helvetica;fontSize=11;fontColor=default;labelBackgroundColor=default;" parent="1" vertex="1">
          <mxGeometry x="185.5" y="-163" width="120" height="60" as="geometry" />
        </mxCell>
        <mxCell id="XT3MhefaFS9jrLEFvtJ--29" style="edgeStyle=none;shape=connector;rounded=0;orthogonalLoop=1;jettySize=auto;html=1;strokeColor=default;align=center;verticalAlign=middle;fontFamily=Helvetica;fontSize=11;fontColor=default;labelBackgroundColor=default;endArrow=none;endFill=0;" parent="1" source="XT3MhefaFS9jrLEFvtJ--28" target="fJpas_aMie5ZIC00HAkX-21" edge="1">
          <mxGeometry relative="1" as="geometry" />
        </mxCell>
        <mxCell id="XT3MhefaFS9jrLEFvtJ--28" value="teamName" style="ellipse;whiteSpace=wrap;html=1;align=center;fontFamily=Helvetica;fontSize=11;fontColor=default;labelBackgroundColor=default;flipV=1;" parent="1" vertex="1">
          <mxGeometry x="884" y="-73" width="60" height="40" as="geometry" />
        </mxCell>
        <mxCell id="XT3MhefaFS9jrLEFvtJ--39" value="M" style="text;html=1;align=center;verticalAlign=middle;resizable=0;points=[];autosize=1;strokeColor=none;fillColor=none;fontFamily=Helvetica;" parent="1" vertex="1">
          <mxGeometry x="285" y="-162" width="30" height="30" as="geometry" />
        </mxCell>
        <mxCell id="XT3MhefaFS9jrLEFvtJ--40" value="N" style="text;html=1;align=center;verticalAlign=middle;resizable=0;points=[];autosize=1;strokeColor=none;fillColor=none;fontFamily=Helvetica;" parent="1" vertex="1">
          <mxGeometry x="165" y="-162" width="30" height="30" as="geometry" />
        </mxCell>
        <mxCell id="XT3MhefaFS9jrLEFvtJ--43" style="rounded=0;orthogonalLoop=1;jettySize=auto;html=1;endArrow=none;endFill=0;" parent="1" source="XT3MhefaFS9jrLEFvtJ--41" target="XT3MhefaFS9jrLEFvtJ--5" edge="1">
          <mxGeometry relative="1" as="geometry" />
        </mxCell>
        <mxCell id="XT3MhefaFS9jrLEFvtJ--41" value="groupId" style="ellipse;whiteSpace=wrap;html=1;align=center;fontStyle=4;fontFamily=Helvetica;fontSize=11;fontColor=default;labelBackgroundColor=default;flipV=1;" parent="1" vertex="1">
          <mxGeometry x="-332" y="620" width="90" height="40" as="geometry" />
        </mxCell>
        <mxCell id="XT3MhefaFS9jrLEFvtJ--45" style="edgeStyle=none;shape=connector;rounded=0;orthogonalLoop=1;jettySize=auto;html=1;strokeColor=default;align=center;verticalAlign=middle;fontFamily=Helvetica;fontSize=11;fontColor=default;labelBackgroundColor=default;endArrow=none;endFill=0;" parent="1" source="XT3MhefaFS9jrLEFvtJ--44" target="XT3MhefaFS9jrLEFvtJ--5" edge="1">
          <mxGeometry relative="1" as="geometry" />
        </mxCell>
        <mxCell id="XT3MhefaFS9jrLEFvtJ--44" value="groupName" style="ellipse;whiteSpace=wrap;html=1;align=center;fontFamily=Helvetica;fontSize=11;fontColor=default;labelBackgroundColor=default;flipV=1;" parent="1" vertex="1">
          <mxGeometry x="-395" y="660" width="78" height="40" as="geometry" />
        </mxCell>
        <mxCell id="XT3MhefaFS9jrLEFvtJ--53" style="edgeStyle=none;shape=connector;rounded=0;orthogonalLoop=1;jettySize=auto;html=1;strokeColor=default;align=center;verticalAlign=middle;fontFamily=Helvetica;fontSize=11;fontColor=default;labelBackgroundColor=default;endArrow=none;endFill=0;" parent="1" source="M69CKX1u7b5WQhzP7sgT-1" target="XT3MhefaFS9jrLEFvtJ--25" edge="1">
          <mxGeometry relative="1" as="geometry">
            <mxPoint x="301.47257925113126" y="-169.07049245661437" as="sourcePoint" />
          </mxGeometry>
        </mxCell>
        <mxCell id="XT3MhefaFS9jrLEFvtJ--52" style="edgeStyle=none;shape=connector;rounded=0;orthogonalLoop=1;jettySize=auto;html=1;strokeColor=default;align=center;verticalAlign=middle;fontFamily=Helvetica;fontSize=11;fontColor=default;labelBackgroundColor=default;endArrow=none;endFill=0;" parent="1" source="XT3MhefaFS9jrLEFvtJ--47" target="XT3MhefaFS9jrLEFvtJ--25" edge="1">
          <mxGeometry relative="1" as="geometry" />
        </mxCell>
        <mxCell id="XT3MhefaFS9jrLEFvtJ--47" value="win" style="ellipse;whiteSpace=wrap;html=1;align=center;fontFamily=Helvetica;fontSize=11;fontColor=default;labelBackgroundColor=default;flipV=1;" parent="1" vertex="1">
          <mxGeometry x="245.5" y="-243" width="60" height="40" as="geometry" />
        </mxCell>
        <mxCell id="XT3MhefaFS9jrLEFvtJ--50" style="edgeStyle=none;shape=connector;rounded=0;orthogonalLoop=1;jettySize=auto;html=1;strokeColor=default;align=center;verticalAlign=middle;fontFamily=Helvetica;fontSize=11;fontColor=default;labelBackgroundColor=default;endArrow=none;endFill=0;" parent="1" source="XT3MhefaFS9jrLEFvtJ--48" target="XT3MhefaFS9jrLEFvtJ--25" edge="1">
          <mxGeometry relative="1" as="geometry" />
        </mxCell>
        <mxCell id="XT3MhefaFS9jrLEFvtJ--48" value="loss" style="ellipse;whiteSpace=wrap;html=1;align=center;fontFamily=Helvetica;fontSize=11;fontColor=default;labelBackgroundColor=default;flipV=1;" parent="1" vertex="1">
          <mxGeometry x="169" y="-242" width="60" height="40" as="geometry" />
        </mxCell>
        <mxCell id="XT3MhefaFS9jrLEFvtJ--51" style="edgeStyle=none;shape=connector;rounded=0;orthogonalLoop=1;jettySize=auto;html=1;strokeColor=default;align=center;verticalAlign=middle;fontFamily=Helvetica;fontSize=11;fontColor=default;labelBackgroundColor=default;endArrow=none;endFill=0;" parent="1" source="XT3MhefaFS9jrLEFvtJ--49" target="XT3MhefaFS9jrLEFvtJ--25" edge="1">
          <mxGeometry relative="1" as="geometry" />
        </mxCell>
        <mxCell id="XT3MhefaFS9jrLEFvtJ--49" value="draw" style="ellipse;whiteSpace=wrap;html=1;align=center;fontFamily=Helvetica;fontSize=11;fontColor=default;labelBackgroundColor=default;flipV=1;" parent="1" vertex="1">
          <mxGeometry x="124" y="-202" width="60" height="40" as="geometry" />
        </mxCell>
        <mxCell id="XT3MhefaFS9jrLEFvtJ--55" style="edgeStyle=none;shape=connector;rounded=0;orthogonalLoop=1;jettySize=auto;html=1;strokeColor=default;align=center;verticalAlign=middle;fontFamily=Helvetica;fontSize=11;fontColor=default;labelBackgroundColor=default;endArrow=none;endFill=0;" parent="1" source="XT3MhefaFS9jrLEFvtJ--54" target="XT3MhefaFS9jrLEFvtJ--10" edge="1">
          <mxGeometry relative="1" as="geometry" />
        </mxCell>
        <mxCell id="XT3MhefaFS9jrLEFvtJ--54" value="gameId" style="ellipse;whiteSpace=wrap;html=1;align=center;fontStyle=4;fontFamily=Helvetica;fontSize=11;fontColor=default;labelBackgroundColor=default;flipV=1;" parent="1" vertex="1">
          <mxGeometry x="-379.5" y="90" width="90" height="40" as="geometry" />
        </mxCell>
        <mxCell id="XT3MhefaFS9jrLEFvtJ--57" style="edgeStyle=none;shape=connector;rounded=0;orthogonalLoop=1;jettySize=auto;html=1;strokeColor=default;align=center;verticalAlign=middle;fontFamily=Helvetica;fontSize=11;fontColor=default;labelBackgroundColor=default;endArrow=none;endFill=0;" parent="1" source="XT3MhefaFS9jrLEFvtJ--56" target="XT3MhefaFS9jrLEFvtJ--10" edge="1">
          <mxGeometry relative="1" as="geometry" />
        </mxCell>
        <mxCell id="XT3MhefaFS9jrLEFvtJ--56" value="gameNumber" style="ellipse;whiteSpace=wrap;html=1;align=center;fontFamily=Helvetica;fontSize=11;fontColor=default;labelBackgroundColor=default;flipV=1;" parent="1" vertex="1">
          <mxGeometry x="-406" y="132" width="77" height="31" as="geometry" />
        </mxCell>
        <mxCell id="XT3MhefaFS9jrLEFvtJ--59" style="edgeStyle=none;shape=connector;rounded=0;orthogonalLoop=1;jettySize=auto;html=1;strokeColor=default;align=center;verticalAlign=middle;fontFamily=Helvetica;fontSize=11;fontColor=default;labelBackgroundColor=default;endArrow=none;endFill=0;" parent="1" source="XT3MhefaFS9jrLEFvtJ--58" target="XT3MhefaFS9jrLEFvtJ--10" edge="1">
          <mxGeometry relative="1" as="geometry" />
        </mxCell>
        <mxCell id="XT3MhefaFS9jrLEFvtJ--61" style="edgeStyle=orthogonalEdgeStyle;shape=connector;rounded=0;orthogonalLoop=1;jettySize=auto;html=1;strokeColor=default;align=center;verticalAlign=middle;fontFamily=Helvetica;fontSize=11;fontColor=default;labelBackgroundColor=default;endArrow=none;endFill=0;" parent="1" source="XT3MhefaFS9jrLEFvtJ--58" target="fJpas_aMie5ZIC00HAkX-21" edge="1">
          <mxGeometry relative="1" as="geometry">
            <Array as="points">
              <mxPoint x="800" y="-90" />
            </Array>
          </mxGeometry>
        </mxCell>
        <mxCell id="XT3MhefaFS9jrLEFvtJ--58" value="Win the game" style="shape=rhombus;perimeter=rhombusPerimeter;whiteSpace=wrap;html=1;align=center;fontFamily=Helvetica;fontSize=11;fontColor=default;labelBackgroundColor=default;" parent="1" vertex="1">
          <mxGeometry x="-342" y="-120" width="120" height="60" as="geometry" />
        </mxCell>
        <mxCell id="XT3MhefaFS9jrLEFvtJ--62" value="N" style="text;html=1;align=center;verticalAlign=middle;resizable=0;points=[];autosize=1;strokeColor=none;fillColor=none;fontFamily=Helvetica;fontSize=11;fontColor=default;labelBackgroundColor=default;" parent="1" vertex="1">
          <mxGeometry x="-285" y="-65" width="30" height="30" as="geometry" />
        </mxCell>
        <mxCell id="XT3MhefaFS9jrLEFvtJ--63" value="1" style="text;html=1;align=center;verticalAlign=middle;resizable=0;points=[];autosize=1;strokeColor=none;fillColor=none;fontFamily=Helvetica;fontSize=11;fontColor=default;labelBackgroundColor=default;" parent="1" vertex="1">
          <mxGeometry x="-234" y="-95" width="30" height="30" as="geometry" />
        </mxCell>
        <mxCell id="XT3MhefaFS9jrLEFvtJ--65" style="edgeStyle=none;shape=connector;rounded=0;orthogonalLoop=1;jettySize=auto;html=1;strokeColor=default;align=center;verticalAlign=middle;fontFamily=Helvetica;fontSize=11;fontColor=default;labelBackgroundColor=default;endArrow=none;endFill=0;" parent="1" source="XT3MhefaFS9jrLEFvtJ--64" target="wX9nulocx6VRCnXDJnAP-21" edge="1">
          <mxGeometry relative="1" as="geometry" />
        </mxCell>
        <mxCell id="XT3MhefaFS9jrLEFvtJ--64" value="round" style="ellipse;whiteSpace=wrap;html=1;align=center;fontFamily=Helvetica;fontSize=11;fontColor=default;labelBackgroundColor=default;flipV=1;" parent="1" vertex="1">
          <mxGeometry x="-216" y="401" width="60" height="40" as="geometry" />
        </mxCell>
        <mxCell id="XT3MhefaFS9jrLEFvtJ--67" style="edgeStyle=none;shape=connector;rounded=0;orthogonalLoop=1;jettySize=auto;html=1;strokeColor=default;align=center;verticalAlign=middle;fontFamily=Helvetica;fontSize=11;fontColor=default;labelBackgroundColor=default;endArrow=none;endFill=0;" parent="1" source="XT3MhefaFS9jrLEFvtJ--66" target="XT3MhefaFS9jrLEFvtJ--2" edge="1">
          <mxGeometry relative="1" as="geometry" />
        </mxCell>
        <mxCell id="XT3MhefaFS9jrLEFvtJ--66" value="isTieBreak" style="ellipse;whiteSpace=wrap;html=1;align=center;fontFamily=Helvetica;fontSize=11;fontColor=default;labelBackgroundColor=default;flipV=1;" parent="1" vertex="1">
          <mxGeometry x="-302" y="443" width="60" height="40" as="geometry" />
        </mxCell>
        <mxCell id="tHqHeR37jDW3KOw-bevK-1" value="a = 2, b = 0" style="text;html=1;align=center;verticalAlign=middle;resizable=0;points=[];autosize=1;strokeColor=none;fillColor=none;fontFamily=Helvetica;fontSize=11;fontColor=default;labelBackgroundColor=default;" parent="1" vertex="1">
          <mxGeometry x="218" y="274.5" width="74" height="25" as="geometry" />
        </mxCell>
        <mxCell id="M69CKX1u7b5WQhzP7sgT-1" value="point" style="ellipse;whiteSpace=wrap;html=1;align=center;dashed=1;" parent="1" vertex="1">
          <mxGeometry x="304" y="-206" width="55" height="40" as="geometry" />
        </mxCell>
      </root>
    </mxGraphModel>
  </diagram>
  <diagram id="uC2eEmdOGYO3_Z0aBnIy" name="ER Mapping">
    <mxGraphModel dx="1434" dy="836" grid="1" gridSize="10" guides="1" tooltips="1" connect="1" arrows="1" fold="1" page="1" pageScale="1" pageWidth="1100" pageHeight="850" math="0" shadow="0">
      <root>
        <mxCell id="0" />
        <mxCell id="1" parent="0" />
        <mxCell id="vy5bnW0JeTOTz4FZlbyJ-29" value="Player" style="shape=table;startSize=30;container=1;collapsible=1;childLayout=tableLayout;fixedRows=1;rowLines=0;fontStyle=1;align=center;resizeLast=1;html=1;fontFamily=Helvetica;fontSize=11;fontColor=default;labelBackgroundColor=default;" vertex="1" parent="1">
          <mxGeometry x="110" y="110" width="180" height="150" as="geometry" />
        </mxCell>
        <mxCell id="vy5bnW0JeTOTz4FZlbyJ-30" value="" style="shape=tableRow;horizontal=0;startSize=0;swimlaneHead=0;swimlaneBody=0;fillColor=none;collapsible=0;dropTarget=0;points=[[0,0.5],[1,0.5]];portConstraint=eastwest;top=0;left=0;right=0;bottom=1;fontFamily=Helvetica;fontSize=11;fontColor=default;labelBackgroundColor=default;" vertex="1" parent="vy5bnW0JeTOTz4FZlbyJ-29">
          <mxGeometry y="30" width="180" height="30" as="geometry" />
        </mxCell>
        <mxCell id="vy5bnW0JeTOTz4FZlbyJ-31" value="PK" style="shape=partialRectangle;connectable=0;fillColor=none;top=0;left=0;bottom=0;right=0;fontStyle=1;overflow=hidden;whiteSpace=wrap;html=1;fontFamily=Helvetica;fontSize=11;fontColor=default;labelBackgroundColor=default;" vertex="1" parent="vy5bnW0JeTOTz4FZlbyJ-30">
          <mxGeometry width="30" height="30" as="geometry">
            <mxRectangle width="30" height="30" as="alternateBounds" />
          </mxGeometry>
        </mxCell>
        <mxCell id="vy5bnW0JeTOTz4FZlbyJ-32" value="playerID" style="shape=partialRectangle;connectable=0;fillColor=none;top=0;left=0;bottom=0;right=0;align=left;spacingLeft=6;fontStyle=5;overflow=hidden;whiteSpace=wrap;html=1;fontFamily=Helvetica;fontSize=11;fontColor=default;labelBackgroundColor=default;" vertex="1" parent="vy5bnW0JeTOTz4FZlbyJ-30">
          <mxGeometry x="30" width="150" height="30" as="geometry">
            <mxRectangle width="150" height="30" as="alternateBounds" />
          </mxGeometry>
        </mxCell>
        <mxCell id="vy5bnW0JeTOTz4FZlbyJ-33" value="" style="shape=tableRow;horizontal=0;startSize=0;swimlaneHead=0;swimlaneBody=0;fillColor=none;collapsible=0;dropTarget=0;points=[[0,0.5],[1,0.5]];portConstraint=eastwest;top=0;left=0;right=0;bottom=0;fontFamily=Helvetica;fontSize=11;fontColor=default;labelBackgroundColor=default;" vertex="1" parent="vy5bnW0JeTOTz4FZlbyJ-29">
          <mxGeometry y="60" width="180" height="30" as="geometry" />
        </mxCell>
        <mxCell id="vy5bnW0JeTOTz4FZlbyJ-34" value="" style="shape=partialRectangle;connectable=0;fillColor=none;top=0;left=0;bottom=0;right=0;editable=1;overflow=hidden;whiteSpace=wrap;html=1;fontFamily=Helvetica;fontSize=11;fontColor=default;labelBackgroundColor=default;" vertex="1" parent="vy5bnW0JeTOTz4FZlbyJ-33">
          <mxGeometry width="30" height="30" as="geometry">
            <mxRectangle width="30" height="30" as="alternateBounds" />
          </mxGeometry>
        </mxCell>
        <mxCell id="vy5bnW0JeTOTz4FZlbyJ-35" value="inagameName" style="shape=partialRectangle;connectable=0;fillColor=none;top=0;left=0;bottom=0;right=0;align=left;spacingLeft=6;overflow=hidden;whiteSpace=wrap;html=1;fontFamily=Helvetica;fontSize=11;fontColor=default;labelBackgroundColor=default;" vertex="1" parent="vy5bnW0JeTOTz4FZlbyJ-33">
          <mxGeometry x="30" width="150" height="30" as="geometry">
            <mxRectangle width="150" height="30" as="alternateBounds" />
          </mxGeometry>
        </mxCell>
        <mxCell id="vy5bnW0JeTOTz4FZlbyJ-36" value="" style="shape=tableRow;horizontal=0;startSize=0;swimlaneHead=0;swimlaneBody=0;fillColor=none;collapsible=0;dropTarget=0;points=[[0,0.5],[1,0.5]];portConstraint=eastwest;top=0;left=0;right=0;bottom=0;fontFamily=Helvetica;fontSize=11;fontColor=default;labelBackgroundColor=default;" vertex="1" parent="vy5bnW0JeTOTz4FZlbyJ-29">
          <mxGeometry y="90" width="180" height="30" as="geometry" />
        </mxCell>
        <mxCell id="vy5bnW0JeTOTz4FZlbyJ-37" value="" style="shape=partialRectangle;connectable=0;fillColor=none;top=0;left=0;bottom=0;right=0;editable=1;overflow=hidden;whiteSpace=wrap;html=1;fontFamily=Helvetica;fontSize=11;fontColor=default;labelBackgroundColor=default;" vertex="1" parent="vy5bnW0JeTOTz4FZlbyJ-36">
          <mxGeometry width="30" height="30" as="geometry">
            <mxRectangle width="30" height="30" as="alternateBounds" />
          </mxGeometry>
        </mxCell>
        <mxCell id="vy5bnW0JeTOTz4FZlbyJ-38" value="Row 2" style="shape=partialRectangle;connectable=0;fillColor=none;top=0;left=0;bottom=0;right=0;align=left;spacingLeft=6;overflow=hidden;whiteSpace=wrap;html=1;fontFamily=Helvetica;fontSize=11;fontColor=default;labelBackgroundColor=default;" vertex="1" parent="vy5bnW0JeTOTz4FZlbyJ-36">
          <mxGeometry x="30" width="150" height="30" as="geometry">
            <mxRectangle width="150" height="30" as="alternateBounds" />
          </mxGeometry>
        </mxCell>
        <mxCell id="vy5bnW0JeTOTz4FZlbyJ-39" value="" style="shape=tableRow;horizontal=0;startSize=0;swimlaneHead=0;swimlaneBody=0;fillColor=none;collapsible=0;dropTarget=0;points=[[0,0.5],[1,0.5]];portConstraint=eastwest;top=0;left=0;right=0;bottom=0;fontFamily=Helvetica;fontSize=11;fontColor=default;labelBackgroundColor=default;" vertex="1" parent="vy5bnW0JeTOTz4FZlbyJ-29">
          <mxGeometry y="120" width="180" height="30" as="geometry" />
        </mxCell>
        <mxCell id="vy5bnW0JeTOTz4FZlbyJ-40" value="" style="shape=partialRectangle;connectable=0;fillColor=none;top=0;left=0;bottom=0;right=0;editable=1;overflow=hidden;whiteSpace=wrap;html=1;fontFamily=Helvetica;fontSize=11;fontColor=default;labelBackgroundColor=default;" vertex="1" parent="vy5bnW0JeTOTz4FZlbyJ-39">
          <mxGeometry width="30" height="30" as="geometry">
            <mxRectangle width="30" height="30" as="alternateBounds" />
          </mxGeometry>
        </mxCell>
        <mxCell id="vy5bnW0JeTOTz4FZlbyJ-41" value="Row 3" style="shape=partialRectangle;connectable=0;fillColor=none;top=0;left=0;bottom=0;right=0;align=left;spacingLeft=6;overflow=hidden;whiteSpace=wrap;html=1;fontFamily=Helvetica;fontSize=11;fontColor=default;labelBackgroundColor=default;" vertex="1" parent="vy5bnW0JeTOTz4FZlbyJ-39">
          <mxGeometry x="30" width="150" height="30" as="geometry">
            <mxRectangle width="150" height="30" as="alternateBounds" />
          </mxGeometry>
        </mxCell>
      </root>
    </mxGraphModel>
  </diagram>
  <diagram id="juV4N1w3kx_W8vkvKh3y" name="Page-3">
    <mxGraphModel dx="2534" dy="1686" grid="0" gridSize="10" guides="1" tooltips="1" connect="1" arrows="1" fold="1" page="1" pageScale="1" pageWidth="1100" pageHeight="850" math="0" shadow="0">
      <root>
        <mxCell id="0" />
        <mxCell id="1" parent="0" />
        <mxCell id="at10dXYq1sMuarl5lH9b-1" value="Player" style="whiteSpace=wrap;html=1;align=center;fontFamily=Helvetica;fontSize=11;fontColor=default;labelBackgroundColor=default;" vertex="1" parent="1">
          <mxGeometry x="-49" y="75" width="65" height="40" as="geometry" />
        </mxCell>
        <mxCell id="at10dXYq1sMuarl5lH9b-2" style="edgeStyle=none;shape=connector;rounded=0;orthogonalLoop=1;jettySize=auto;html=1;entryDx=0;entryDy=0;strokeColor=default;align=center;verticalAlign=middle;fontFamily=Helvetica;fontSize=11;fontColor=default;labelBackgroundColor=default;endArrow=none;endFill=0;" edge="1" parent="1" source="at10dXYq1sMuarl5lH9b-3" target="at10dXYq1sMuarl5lH9b-1">
          <mxGeometry relative="1" as="geometry" />
        </mxCell>
        <mxCell id="at10dXYq1sMuarl5lH9b-3" value="dob" style="ellipse;whiteSpace=wrap;html=1;align=center;fontFamily=Helvetica;fontSize=11;fontColor=default;labelBackgroundColor=default;flipV=1;" vertex="1" parent="1">
          <mxGeometry x="-186" y="10" width="60" height="40" as="geometry" />
        </mxCell>
        <mxCell id="at10dXYq1sMuarl5lH9b-4" value="playerId" style="ellipse;whiteSpace=wrap;html=1;align=center;fontStyle=4;fontFamily=Helvetica;fontSize=11;fontColor=default;labelBackgroundColor=default;flipV=1;" vertex="1" parent="1">
          <mxGeometry x="-143.99" y="-35" width="50" height="40" as="geometry" />
        </mxCell>
        <mxCell id="at10dXYq1sMuarl5lH9b-5" style="edgeStyle=none;shape=connector;rounded=0;orthogonalLoop=1;jettySize=auto;html=1;entryDx=0;entryDy=0;entryPerimeter=0;strokeColor=default;align=center;verticalAlign=middle;fontFamily=Helvetica;fontSize=11;fontColor=default;labelBackgroundColor=default;endArrow=none;endFill=0;" edge="1" parent="1" source="at10dXYq1sMuarl5lH9b-4" target="at10dXYq1sMuarl5lH9b-1">
          <mxGeometry relative="1" as="geometry" />
        </mxCell>
        <mxCell id="at10dXYq1sMuarl5lH9b-6" style="edgeStyle=none;shape=connector;rounded=0;orthogonalLoop=1;jettySize=auto;html=1;strokeColor=default;align=center;verticalAlign=middle;fontFamily=Helvetica;fontSize=11;fontColor=default;labelBackgroundColor=default;endArrow=none;endFill=0;" edge="1" parent="1" source="at10dXYq1sMuarl5lH9b-7" target="at10dXYq1sMuarl5lH9b-1">
          <mxGeometry relative="1" as="geometry" />
        </mxCell>
        <mxCell id="at10dXYq1sMuarl5lH9b-7" value="nationality" style="ellipse;whiteSpace=wrap;html=1;align=center;fontFamily=Helvetica;fontSize=11;fontColor=default;labelBackgroundColor=default;flipV=1;" vertex="1" parent="1">
          <mxGeometry x="-186" y="60" width="60" height="40" as="geometry" />
        </mxCell>
        <mxCell id="at10dXYq1sMuarl5lH9b-8" style="rounded=0;orthogonalLoop=1;jettySize=auto;html=1;strokeColor=default;endArrow=none;endFill=0;" edge="1" parent="1" source="at10dXYq1sMuarl5lH9b-9" target="at10dXYq1sMuarl5lH9b-1">
          <mxGeometry relative="1" as="geometry" />
        </mxCell>
        <mxCell id="at10dXYq1sMuarl5lH9b-9" value="ingameName" style="ellipse;whiteSpace=wrap;html=1;align=center;fontFamily=Helvetica;fontSize=11;fontColor=default;labelBackgroundColor=default;flipV=1;" vertex="1" parent="1">
          <mxGeometry x="-80.25" y="-35" width="71" height="40" as="geometry" />
        </mxCell>
        <mxCell id="at10dXYq1sMuarl5lH9b-10" style="edgeStyle=none;shape=connector;rounded=0;orthogonalLoop=1;jettySize=auto;html=1;strokeColor=default;align=center;verticalAlign=middle;fontFamily=Helvetica;fontSize=11;fontColor=default;labelBackgroundColor=default;endArrow=none;endFill=0;" edge="1" parent="1" source="at10dXYq1sMuarl5lH9b-13" target="at10dXYq1sMuarl5lH9b-1">
          <mxGeometry relative="1" as="geometry" />
        </mxCell>
        <mxCell id="at10dXYq1sMuarl5lH9b-11" style="edgeStyle=none;shape=connector;rounded=0;orthogonalLoop=1;jettySize=auto;html=1;strokeColor=default;align=center;verticalAlign=middle;fontFamily=Helvetica;fontSize=11;fontColor=default;labelBackgroundColor=default;endArrow=none;endFill=0;" edge="1" parent="1" source="at10dXYq1sMuarl5lH9b-13" target="at10dXYq1sMuarl5lH9b-60">
          <mxGeometry relative="1" as="geometry" />
        </mxCell>
        <mxCell id="at10dXYq1sMuarl5lH9b-12" style="edgeStyle=none;shape=connector;rounded=0;orthogonalLoop=1;jettySize=auto;html=1;strokeColor=default;align=center;verticalAlign=middle;fontFamily=Helvetica;fontSize=11;fontColor=default;labelBackgroundColor=default;endArrow=none;endFill=0;" edge="1" parent="1" source="at10dXYq1sMuarl5lH9b-13" target="at10dXYq1sMuarl5lH9b-61">
          <mxGeometry relative="1" as="geometry" />
        </mxCell>
        <mxCell id="at10dXYq1sMuarl5lH9b-13" value="playerName" style="ellipse;whiteSpace=wrap;html=1;align=center;fontFamily=Helvetica;fontSize=11;fontColor=default;labelBackgroundColor=default;flipV=1;" vertex="1" parent="1">
          <mxGeometry x="-7" y="-14" width="66" height="40" as="geometry" />
        </mxCell>
        <mxCell id="at10dXYq1sMuarl5lH9b-14" style="edgeStyle=none;shape=connector;rounded=0;orthogonalLoop=1;jettySize=auto;html=1;strokeColor=default;align=center;verticalAlign=middle;fontFamily=Helvetica;fontSize=11;fontColor=default;labelBackgroundColor=default;endArrow=none;endFill=0;" edge="1" parent="1" source="at10dXYq1sMuarl5lH9b-15" target="at10dXYq1sMuarl5lH9b-1">
          <mxGeometry relative="1" as="geometry" />
        </mxCell>
        <mxCell id="at10dXYq1sMuarl5lH9b-15" value="role" style="ellipse;whiteSpace=wrap;html=1;align=center;fontFamily=Helvetica;fontSize=11;fontColor=default;labelBackgroundColor=default;flipV=1;" vertex="1" parent="1">
          <mxGeometry x="69.75" y="-35" width="60" height="40" as="geometry" />
        </mxCell>
        <mxCell id="at10dXYq1sMuarl5lH9b-16" value="Team" style="whiteSpace=wrap;html=1;align=center;fontFamily=Helvetica;fontSize=11;fontColor=default;labelBackgroundColor=default;" vertex="1" parent="1">
          <mxGeometry x="783.5" y="72" width="65" height="40" as="geometry" />
        </mxCell>
        <mxCell id="at10dXYq1sMuarl5lH9b-17" style="rounded=0;orthogonalLoop=1;jettySize=auto;html=1;strokeColor=default;endArrow=none;endFill=0;" edge="1" parent="1" source="at10dXYq1sMuarl5lH9b-18" target="at10dXYq1sMuarl5lH9b-16">
          <mxGeometry relative="1" as="geometry" />
        </mxCell>
        <mxCell id="at10dXYq1sMuarl5lH9b-18" value="&lt;u&gt;teamId&lt;/u&gt;" style="ellipse;whiteSpace=wrap;html=1;align=center;fontFamily=Helvetica;fontSize=11;fontColor=default;labelBackgroundColor=default;flipV=1;" vertex="1" parent="1">
          <mxGeometry x="884" y="-14" width="60" height="40" as="geometry" />
        </mxCell>
        <mxCell id="at10dXYq1sMuarl5lH9b-19" value="Region" style="whiteSpace=wrap;html=1;align=center;fontFamily=Helvetica;fontSize=11;fontColor=default;labelBackgroundColor=default;" vertex="1" parent="1">
          <mxGeometry x="783.5" y="547" width="65" height="40" as="geometry" />
        </mxCell>
        <mxCell id="at10dXYq1sMuarl5lH9b-20" style="rounded=0;orthogonalLoop=1;jettySize=auto;html=1;strokeColor=default;endArrow=none;endFill=0;" edge="1" parent="1" source="at10dXYq1sMuarl5lH9b-21" target="at10dXYq1sMuarl5lH9b-19">
          <mxGeometry relative="1" as="geometry" />
        </mxCell>
        <mxCell id="at10dXYq1sMuarl5lH9b-21" value="regionName" style="ellipse;whiteSpace=wrap;html=1;align=center;fontFamily=Helvetica;fontSize=11;fontColor=default;labelBackgroundColor=default;flipV=1;fontStyle=4" vertex="1" parent="1">
          <mxGeometry x="771" y="637" width="90" height="40" as="geometry" />
        </mxCell>
        <mxCell id="at10dXYq1sMuarl5lH9b-22" style="edgeStyle=none;shape=link;rounded=0;orthogonalLoop=1;jettySize=auto;html=1;strokeColor=default;align=center;verticalAlign=middle;fontFamily=Helvetica;fontSize=11;fontColor=default;labelBackgroundColor=default;endArrow=none;endFill=0;" edge="1" parent="1" source="at10dXYq1sMuarl5lH9b-25" target="at10dXYq1sMuarl5lH9b-48">
          <mxGeometry relative="1" as="geometry" />
        </mxCell>
        <mxCell id="at10dXYq1sMuarl5lH9b-23" style="rounded=0;orthogonalLoop=1;jettySize=auto;html=1;endArrow=none;endFill=0;exitX=1;exitY=0;exitDx=0;exitDy=0;entryX=0;entryY=0.5;entryDx=0;entryDy=0;" edge="1" parent="1" source="at10dXYq1sMuarl5lH9b-25" target="at10dXYq1sMuarl5lH9b-122">
          <mxGeometry relative="1" as="geometry">
            <mxPoint x="738" y="773" as="targetPoint" />
          </mxGeometry>
        </mxCell>
        <mxCell id="at10dXYq1sMuarl5lH9b-24" style="rounded=0;orthogonalLoop=1;jettySize=auto;html=1;endArrow=none;endFill=0;" edge="1" parent="1" source="at10dXYq1sMuarl5lH9b-25" target="at10dXYq1sMuarl5lH9b-62">
          <mxGeometry relative="1" as="geometry" />
        </mxCell>
        <mxCell id="at10dXYq1sMuarl5lH9b-25" value="Tournament" style="whiteSpace=wrap;html=1;align=center;fontFamily=Helvetica;fontSize=11;fontColor=default;labelBackgroundColor=default;flipV=1;" vertex="1" parent="1">
          <mxGeometry x="-49" y="566" width="65" height="40" as="geometry" />
        </mxCell>
        <mxCell id="at10dXYq1sMuarl5lH9b-26" value="tournamentId" style="ellipse;whiteSpace=wrap;html=1;align=center;fontStyle=4;fontFamily=Helvetica;fontSize=11;fontColor=default;labelBackgroundColor=default;flipV=1;" vertex="1" parent="1">
          <mxGeometry x="68" y="604" width="90" height="40" as="geometry" />
        </mxCell>
        <mxCell id="at10dXYq1sMuarl5lH9b-27" style="edgeStyle=none;shape=connector;rounded=0;orthogonalLoop=1;jettySize=auto;html=1;entryDx=0;entryDy=0;entryPerimeter=0;strokeColor=default;align=center;verticalAlign=middle;fontFamily=Helvetica;fontSize=11;fontColor=default;labelBackgroundColor=default;endArrow=none;endFill=0;" edge="1" parent="1" source="at10dXYq1sMuarl5lH9b-26" target="at10dXYq1sMuarl5lH9b-25">
          <mxGeometry relative="1" as="geometry" />
        </mxCell>
        <mxCell id="at10dXYq1sMuarl5lH9b-28" style="edgeStyle=none;shape=connector;rounded=0;orthogonalLoop=1;jettySize=auto;html=1;strokeColor=default;align=center;verticalAlign=middle;fontFamily=Helvetica;fontSize=11;fontColor=default;labelBackgroundColor=default;endArrow=none;endFill=0;" edge="1" parent="1" source="at10dXYq1sMuarl5lH9b-29" target="at10dXYq1sMuarl5lH9b-25">
          <mxGeometry relative="1" as="geometry" />
        </mxCell>
        <mxCell id="at10dXYq1sMuarl5lH9b-29" value="endDate" style="ellipse;whiteSpace=wrap;html=1;align=center;fontFamily=Helvetica;fontSize=11;fontColor=default;labelBackgroundColor=default;flipV=1;" vertex="1" parent="1">
          <mxGeometry x="-153.99" y="490" width="60" height="40" as="geometry" />
        </mxCell>
        <mxCell id="at10dXYq1sMuarl5lH9b-30" style="edgeStyle=none;shape=connector;rounded=0;orthogonalLoop=1;jettySize=auto;html=1;strokeColor=default;align=center;verticalAlign=middle;fontFamily=Helvetica;fontSize=11;fontColor=default;labelBackgroundColor=default;endArrow=none;endFill=0;" edge="1" parent="1" source="at10dXYq1sMuarl5lH9b-31" target="at10dXYq1sMuarl5lH9b-25">
          <mxGeometry relative="1" as="geometry" />
        </mxCell>
        <mxCell id="at10dXYq1sMuarl5lH9b-31" value="startDate" style="ellipse;whiteSpace=wrap;html=1;align=center;fontFamily=Helvetica;fontSize=11;fontColor=default;labelBackgroundColor=default;flipV=1;" vertex="1" parent="1">
          <mxGeometry x="-88.99" y="479" width="60" height="40" as="geometry" />
        </mxCell>
        <mxCell id="at10dXYq1sMuarl5lH9b-32" style="rounded=0;orthogonalLoop=1;jettySize=auto;html=1;strokeColor=default;endArrow=none;endFill=0;exitX=0.5;exitY=0;exitDx=0;exitDy=0;" edge="1" parent="1" source="at10dXYq1sMuarl5lH9b-33" target="at10dXYq1sMuarl5lH9b-25">
          <mxGeometry relative="1" as="geometry" />
        </mxCell>
        <mxCell id="at10dXYq1sMuarl5lH9b-33" value="tournamentName" style="ellipse;whiteSpace=wrap;html=1;align=center;fontFamily=Helvetica;fontSize=11;fontColor=default;labelBackgroundColor=default;flipV=1;" vertex="1" parent="1">
          <mxGeometry x="-135" y="647" width="110" height="40" as="geometry" />
        </mxCell>
        <mxCell id="at10dXYq1sMuarl5lH9b-34" style="edgeStyle=none;shape=link;rounded=0;orthogonalLoop=1;jettySize=auto;html=1;strokeColor=default;align=center;verticalAlign=middle;fontFamily=Helvetica;fontSize=11;fontColor=default;labelBackgroundColor=default;endArrow=none;endFill=0;exitX=0.5;exitY=0;exitDx=0;exitDy=0;" edge="1" parent="1" source="at10dXYq1sMuarl5lH9b-36" target="at10dXYq1sMuarl5lH9b-16">
          <mxGeometry relative="1" as="geometry">
            <mxPoint x="552.5" y="200" as="sourcePoint" />
          </mxGeometry>
        </mxCell>
        <mxCell id="at10dXYq1sMuarl5lH9b-35" style="edgeStyle=none;shape=connector;rounded=0;orthogonalLoop=1;jettySize=auto;html=1;strokeColor=default;align=center;verticalAlign=middle;fontFamily=Helvetica;fontSize=11;fontColor=default;labelBackgroundColor=default;endArrow=none;endFill=0;" edge="1" parent="1" source="at10dXYq1sMuarl5lH9b-36" target="at10dXYq1sMuarl5lH9b-19">
          <mxGeometry relative="1" as="geometry" />
        </mxCell>
        <mxCell id="at10dXYq1sMuarl5lH9b-36" value="Belongs to" style="shape=rhombus;perimeter=rhombusPerimeter;whiteSpace=wrap;html=1;align=center;fontFamily=Helvetica;fontSize=11;fontColor=default;labelBackgroundColor=default;" vertex="1" parent="1">
          <mxGeometry x="756" y="277" width="120" height="60" as="geometry" />
        </mxCell>
        <mxCell id="at10dXYq1sMuarl5lH9b-37" value="M" style="text;html=1;align=center;verticalAlign=middle;resizable=0;points=[];autosize=1;strokeColor=none;fillColor=none;fontFamily=Helvetica;fontSize=11;fontColor=default;labelBackgroundColor=default;" vertex="1" parent="1">
          <mxGeometry x="823.5" y="338" width="27" height="25" as="geometry" />
        </mxCell>
        <mxCell id="at10dXYq1sMuarl5lH9b-38" value="N" style="text;html=1;align=center;verticalAlign=middle;resizable=0;points=[];autosize=1;strokeColor=none;fillColor=none;fontFamily=Helvetica;fontSize=11;fontColor=default;labelBackgroundColor=default;" vertex="1" parent="1">
          <mxGeometry x="813.5" y="247" width="30" height="30" as="geometry" />
        </mxCell>
        <mxCell id="at10dXYq1sMuarl5lH9b-39" style="edgeStyle=none;shape=link;rounded=0;orthogonalLoop=1;jettySize=auto;html=1;strokeColor=default;align=center;verticalAlign=middle;fontFamily=Helvetica;fontSize=11;fontColor=default;labelBackgroundColor=default;endArrow=none;endFill=0;" edge="1" parent="1" source="at10dXYq1sMuarl5lH9b-41" target="at10dXYq1sMuarl5lH9b-43">
          <mxGeometry relative="1" as="geometry" />
        </mxCell>
        <mxCell id="at10dXYq1sMuarl5lH9b-40" style="edgeStyle=none;shape=connector;rounded=0;orthogonalLoop=1;jettySize=auto;html=1;strokeColor=default;align=center;verticalAlign=middle;fontFamily=Helvetica;fontSize=11;fontColor=default;labelBackgroundColor=default;endArrow=none;endFill=0;exitX=1;exitY=0.5;exitDx=0;exitDy=0;" edge="1" parent="1" source="at10dXYq1sMuarl5lH9b-41" target="at10dXYq1sMuarl5lH9b-19">
          <mxGeometry relative="1" as="geometry" />
        </mxCell>
        <mxCell id="at10dXYq1sMuarl5lH9b-41" value="Belongs to" style="shape=rhombus;perimeter=rhombusPerimeter;whiteSpace=wrap;html=1;align=center;fontFamily=Helvetica;fontSize=11;fontColor=default;labelBackgroundColor=default;" vertex="1" parent="1">
          <mxGeometry x="577" y="537" width="120" height="60" as="geometry" />
        </mxCell>
        <mxCell id="at10dXYq1sMuarl5lH9b-42" style="edgeStyle=none;shape=connector;rounded=0;orthogonalLoop=1;jettySize=auto;html=1;strokeColor=default;align=center;verticalAlign=middle;fontFamily=Helvetica;fontSize=11;fontColor=default;labelBackgroundColor=default;endArrow=none;endFill=0;" edge="1" parent="1" source="at10dXYq1sMuarl5lH9b-43" target="at10dXYq1sMuarl5lH9b-48">
          <mxGeometry relative="1" as="geometry" />
        </mxCell>
        <mxCell id="at10dXYq1sMuarl5lH9b-43" value="Region Tournament" style="whiteSpace=wrap;html=1;align=center;fontFamily=Helvetica;fontSize=11;fontColor=default;labelBackgroundColor=default;flipV=1;" vertex="1" parent="1">
          <mxGeometry x="442" y="547" width="65" height="40" as="geometry" />
        </mxCell>
        <mxCell id="at10dXYq1sMuarl5lH9b-44" style="edgeStyle=none;shape=connector;rounded=0;orthogonalLoop=1;jettySize=auto;html=1;strokeColor=default;align=center;verticalAlign=middle;fontFamily=Helvetica;fontSize=11;fontColor=default;labelBackgroundColor=default;endArrow=none;endFill=0;" edge="1" parent="1" source="at10dXYq1sMuarl5lH9b-45" target="at10dXYq1sMuarl5lH9b-48">
          <mxGeometry relative="1" as="geometry" />
        </mxCell>
        <mxCell id="at10dXYq1sMuarl5lH9b-45" value="International Tournament" style="whiteSpace=wrap;html=1;align=center;fontFamily=Helvetica;fontSize=11;fontColor=default;labelBackgroundColor=default;flipV=1;" vertex="1" parent="1">
          <mxGeometry x="417.75" y="611" width="113.5" height="40" as="geometry" />
        </mxCell>
        <mxCell id="at10dXYq1sMuarl5lH9b-46" style="edgeStyle=none;shape=connector;rounded=0;orthogonalLoop=1;jettySize=auto;html=1;strokeColor=default;align=center;verticalAlign=middle;fontFamily=Helvetica;fontSize=11;fontColor=default;labelBackgroundColor=default;endArrow=none;endFill=0;" edge="1" parent="1" source="at10dXYq1sMuarl5lH9b-47" target="at10dXYq1sMuarl5lH9b-43">
          <mxGeometry relative="1" as="geometry" />
        </mxCell>
        <mxCell id="at10dXYq1sMuarl5lH9b-47" value="season" style="ellipse;whiteSpace=wrap;html=1;align=center;fontFamily=Helvetica;fontSize=11;fontColor=default;labelBackgroundColor=default;flipV=1;" vertex="1" parent="1">
          <mxGeometry x="444.5" y="495" width="60" height="40" as="geometry" />
        </mxCell>
        <mxCell id="at10dXYq1sMuarl5lH9b-48" value="d" style="ellipse;whiteSpace=wrap;html=1;aspect=fixed;fontFamily=Helvetica;fontSize=11;fontColor=default;labelBackgroundColor=default;" vertex="1" parent="1">
          <mxGeometry x="313" y="566" width="40" height="40" as="geometry" />
        </mxCell>
        <mxCell id="at10dXYq1sMuarl5lH9b-49" style="edgeStyle=none;shape=connector;rounded=0;orthogonalLoop=1;jettySize=auto;html=1;strokeColor=default;align=center;verticalAlign=middle;fontFamily=Helvetica;fontSize=11;fontColor=default;labelBackgroundColor=default;endArrow=none;endFill=0;" edge="1" parent="1" source="at10dXYq1sMuarl5lH9b-51" target="at10dXYq1sMuarl5lH9b-1">
          <mxGeometry relative="1" as="geometry" />
        </mxCell>
        <mxCell id="at10dXYq1sMuarl5lH9b-50" style="edgeStyle=none;shape=connector;rounded=0;orthogonalLoop=1;jettySize=auto;html=1;exitX=1;exitY=0.5;exitDx=0;exitDy=0;strokeColor=default;align=center;verticalAlign=middle;fontFamily=Helvetica;fontSize=11;fontColor=default;labelBackgroundColor=default;endArrow=none;endFill=0;" edge="1" parent="1" source="at10dXYq1sMuarl5lH9b-51" target="at10dXYq1sMuarl5lH9b-16">
          <mxGeometry relative="1" as="geometry" />
        </mxCell>
        <mxCell id="at10dXYq1sMuarl5lH9b-51" value="Play for" style="shape=rhombus;perimeter=rhombusPerimeter;whiteSpace=wrap;html=1;align=center;fontFamily=Helvetica;fontSize=11;fontColor=default;labelBackgroundColor=default;" vertex="1" parent="1">
          <mxGeometry x="344" y="65" width="120" height="60" as="geometry" />
        </mxCell>
        <mxCell id="at10dXYq1sMuarl5lH9b-52" value="N" style="text;html=1;align=center;verticalAlign=middle;resizable=0;points=[];autosize=1;strokeColor=none;fillColor=none;fontFamily=Helvetica;fontSize=11;fontColor=default;labelBackgroundColor=default;" vertex="1" parent="1">
          <mxGeometry x="329" y="93" width="30" height="30" as="geometry" />
        </mxCell>
        <mxCell id="at10dXYq1sMuarl5lH9b-53" value="M" style="text;html=1;align=center;verticalAlign=middle;resizable=0;points=[];autosize=1;strokeColor=none;fillColor=none;fontFamily=Helvetica;fontSize=11;fontColor=default;labelBackgroundColor=default;" vertex="1" parent="1">
          <mxGeometry x="459" y="93" width="30" height="30" as="geometry" />
        </mxCell>
        <mxCell id="at10dXYq1sMuarl5lH9b-54" style="edgeStyle=none;shape=connector;rounded=0;orthogonalLoop=1;jettySize=auto;html=1;strokeColor=default;align=center;verticalAlign=middle;fontFamily=Helvetica;fontSize=11;fontColor=default;labelBackgroundColor=default;endArrow=none;endFill=0;" edge="1" parent="1" source="at10dXYq1sMuarl5lH9b-55" target="at10dXYq1sMuarl5lH9b-25">
          <mxGeometry relative="1" as="geometry" />
        </mxCell>
        <mxCell id="at10dXYq1sMuarl5lH9b-55" value="numberOfTeams" style="ellipse;whiteSpace=wrap;html=1;align=center;dashed=1;fontFamily=Helvetica;fontSize=11;fontColor=default;labelBackgroundColor=default;" vertex="1" parent="1">
          <mxGeometry x="7" y="647" width="100" height="40" as="geometry" />
        </mxCell>
        <mxCell id="at10dXYq1sMuarl5lH9b-56" style="edgeStyle=none;shape=connector;rounded=0;orthogonalLoop=1;jettySize=auto;html=1;strokeColor=default;align=center;verticalAlign=middle;fontFamily=Helvetica;fontSize=11;fontColor=default;labelBackgroundColor=default;endArrow=none;endFill=0;" edge="1" parent="1" source="at10dXYq1sMuarl5lH9b-57" target="at10dXYq1sMuarl5lH9b-51">
          <mxGeometry relative="1" as="geometry" />
        </mxCell>
        <mxCell id="at10dXYq1sMuarl5lH9b-57" value="startDate" style="ellipse;whiteSpace=wrap;html=1;align=center;fontFamily=Helvetica;fontSize=11;fontColor=default;labelBackgroundColor=default;flipV=1;" vertex="1" parent="1">
          <mxGeometry x="334" y="5" width="60" height="40" as="geometry" />
        </mxCell>
        <mxCell id="at10dXYq1sMuarl5lH9b-58" style="edgeStyle=none;shape=connector;rounded=0;orthogonalLoop=1;jettySize=auto;html=1;strokeColor=default;align=center;verticalAlign=middle;fontFamily=Helvetica;fontSize=11;fontColor=default;labelBackgroundColor=default;endArrow=none;endFill=0;" edge="1" parent="1" source="at10dXYq1sMuarl5lH9b-59" target="at10dXYq1sMuarl5lH9b-51">
          <mxGeometry relative="1" as="geometry" />
        </mxCell>
        <mxCell id="at10dXYq1sMuarl5lH9b-59" value="endDate" style="ellipse;whiteSpace=wrap;html=1;align=center;fontFamily=Helvetica;fontSize=11;fontColor=default;labelBackgroundColor=default;flipV=1;" vertex="1" parent="1">
          <mxGeometry x="414" y="5" width="60" height="40" as="geometry" />
        </mxCell>
        <mxCell id="at10dXYq1sMuarl5lH9b-60" value="first name" style="ellipse;whiteSpace=wrap;html=1;align=center;fontFamily=Helvetica;fontSize=11;fontColor=default;labelBackgroundColor=default;flipV=1;" vertex="1" parent="1">
          <mxGeometry x="-44" y="-80" width="66" height="40" as="geometry" />
        </mxCell>
        <mxCell id="at10dXYq1sMuarl5lH9b-61" value="lastMiddleName" style="ellipse;whiteSpace=wrap;html=1;align=center;fontFamily=Helvetica;fontSize=11;fontColor=default;labelBackgroundColor=default;flipV=1;" vertex="1" parent="1">
          <mxGeometry x="26.5" y="-80" width="111" height="40" as="geometry" />
        </mxCell>
        <mxCell id="at10dXYq1sMuarl5lH9b-62" value="competitionLocation" style="ellipse;shape=doubleEllipse;margin=3;whiteSpace=wrap;html=1;align=center;fontFamily=Helvetica;fontSize=11;fontColor=default;labelBackgroundColor=default;" vertex="1" parent="1">
          <mxGeometry x="-68.75" y="684" width="110.75" height="40" as="geometry" />
        </mxCell>
        <mxCell id="at10dXYq1sMuarl5lH9b-63" style="edgeStyle=none;shape=connector;rounded=0;orthogonalLoop=1;jettySize=auto;html=1;strokeColor=default;align=center;verticalAlign=middle;fontFamily=Helvetica;fontSize=11;fontColor=default;labelBackgroundColor=default;endArrow=none;endFill=0;exitX=1;exitY=0.5;exitDx=0;exitDy=0;" edge="1" parent="1" source="at10dXYq1sMuarl5lH9b-117" target="at10dXYq1sMuarl5lH9b-16">
          <mxGeometry relative="1" as="geometry" />
        </mxCell>
        <mxCell id="at10dXYq1sMuarl5lH9b-64" style="edgeStyle=none;shape=connector;rounded=0;orthogonalLoop=1;jettySize=auto;html=1;strokeColor=default;align=center;verticalAlign=middle;fontFamily=Helvetica;fontSize=11;fontColor=default;labelBackgroundColor=default;endArrow=none;endFill=0;exitX=0;exitY=0.5;exitDx=0;exitDy=0;" edge="1" parent="1" source="at10dXYq1sMuarl5lH9b-117" target="at10dXYq1sMuarl5lH9b-25">
          <mxGeometry relative="1" as="geometry" />
        </mxCell>
        <mxCell id="at10dXYq1sMuarl5lH9b-65" style="edgeStyle=none;shape=connector;rounded=0;orthogonalLoop=1;jettySize=auto;html=1;strokeColor=default;align=center;verticalAlign=middle;fontFamily=Helvetica;fontSize=11;fontColor=default;labelBackgroundColor=default;endArrow=none;endFill=0;" edge="1" parent="1" source="at10dXYq1sMuarl5lH9b-66" target="at10dXYq1sMuarl5lH9b-62">
          <mxGeometry relative="1" as="geometry" />
        </mxCell>
        <mxCell id="at10dXYq1sMuarl5lH9b-66" value="city" style="ellipse;whiteSpace=wrap;html=1;align=center;fontFamily=Helvetica;fontSize=11;fontColor=default;labelBackgroundColor=default;flipV=1;" vertex="1" parent="1">
          <mxGeometry x="-73" y="734" width="60" height="40" as="geometry" />
        </mxCell>
        <mxCell id="at10dXYq1sMuarl5lH9b-67" style="edgeStyle=none;shape=connector;rounded=0;orthogonalLoop=1;jettySize=auto;html=1;strokeColor=default;align=center;verticalAlign=middle;fontFamily=Helvetica;fontSize=11;fontColor=default;labelBackgroundColor=default;endArrow=none;endFill=0;" edge="1" parent="1" source="at10dXYq1sMuarl5lH9b-68" target="at10dXYq1sMuarl5lH9b-62">
          <mxGeometry relative="1" as="geometry" />
        </mxCell>
        <mxCell id="at10dXYq1sMuarl5lH9b-68" value="arena" style="ellipse;whiteSpace=wrap;html=1;align=center;fontFamily=Helvetica;fontSize=11;fontColor=default;labelBackgroundColor=default;flipV=1;" vertex="1" parent="1">
          <mxGeometry x="-3" y="734" width="60" height="40" as="geometry" />
        </mxCell>
        <mxCell id="at10dXYq1sMuarl5lH9b-69" style="edgeStyle=none;shape=connector;rounded=0;orthogonalLoop=1;jettySize=auto;html=1;strokeColor=default;align=center;verticalAlign=middle;fontFamily=Helvetica;fontSize=11;fontColor=default;labelBackgroundColor=default;endArrow=none;endFill=0;" edge="1" parent="1" source="at10dXYq1sMuarl5lH9b-70" target="at10dXYq1sMuarl5lH9b-16">
          <mxGeometry relative="1" as="geometry" />
        </mxCell>
        <mxCell id="at10dXYq1sMuarl5lH9b-70" value="sponsors" style="ellipse;shape=doubleEllipse;margin=3;whiteSpace=wrap;html=1;align=center;fontFamily=Helvetica;fontSize=11;fontColor=default;labelBackgroundColor=default;direction=south;" vertex="1" parent="1">
          <mxGeometry x="881" y="35" width="90" height="40" as="geometry" />
        </mxCell>
        <mxCell id="at10dXYq1sMuarl5lH9b-71" value="1" style="text;html=1;align=center;verticalAlign=middle;resizable=0;points=[];autosize=1;strokeColor=none;fillColor=none;fontFamily=Helvetica;fontSize=11;fontColor=default;labelBackgroundColor=default;" vertex="1" parent="1">
          <mxGeometry x="676.5" y="535" width="30" height="30" as="geometry" />
        </mxCell>
        <mxCell id="at10dXYq1sMuarl5lH9b-72" value="N" style="text;html=1;align=center;verticalAlign=middle;resizable=0;points=[];autosize=1;strokeColor=none;fillColor=none;fontFamily=Helvetica;fontSize=11;fontColor=default;labelBackgroundColor=default;" vertex="1" parent="1">
          <mxGeometry x="560.5" y="537" width="30" height="30" as="geometry" />
        </mxCell>
        <mxCell id="at10dXYq1sMuarl5lH9b-73" style="edgeStyle=none;rounded=0;orthogonalLoop=1;jettySize=auto;html=1;entryX=0;entryY=0.5;entryDx=0;entryDy=0;strokeColor=default;align=center;verticalAlign=middle;fontFamily=Helvetica;fontSize=11;fontColor=default;labelBackgroundColor=default;endArrow=none;endFill=0;" edge="1" parent="1" source="at10dXYq1sMuarl5lH9b-76" target="at10dXYq1sMuarl5lH9b-85">
          <mxGeometry relative="1" as="geometry" />
        </mxCell>
        <mxCell id="at10dXYq1sMuarl5lH9b-74" style="edgeStyle=none;rounded=0;orthogonalLoop=1;jettySize=auto;html=1;entryX=0;entryY=0.5;entryDx=0;entryDy=0;strokeColor=default;align=center;verticalAlign=middle;fontFamily=Helvetica;fontSize=11;fontColor=default;labelBackgroundColor=default;endArrow=none;endFill=0;" edge="1" parent="1" source="at10dXYq1sMuarl5lH9b-76" target="at10dXYq1sMuarl5lH9b-88">
          <mxGeometry relative="1" as="geometry" />
        </mxCell>
        <mxCell id="at10dXYq1sMuarl5lH9b-75" style="edgeStyle=none;shape=connector;rounded=0;orthogonalLoop=1;jettySize=auto;html=1;strokeColor=default;align=center;verticalAlign=middle;fontFamily=Helvetica;fontSize=11;fontColor=default;labelBackgroundColor=default;endArrow=none;endFill=0;" edge="1" parent="1" source="at10dXYq1sMuarl5lH9b-76" target="at10dXYq1sMuarl5lH9b-146">
          <mxGeometry relative="1" as="geometry" />
        </mxCell>
        <mxCell id="at10dXYq1sMuarl5lH9b-76" value="Match" style="whiteSpace=wrap;html=1;align=center;fontFamily=Helvetica;fontSize=11;fontColor=default;labelBackgroundColor=default;" vertex="1" parent="1">
          <mxGeometry x="-64.75" y="277" width="100" height="40" as="geometry" />
        </mxCell>
        <mxCell id="at10dXYq1sMuarl5lH9b-77" style="edgeStyle=none;shape=connector;rounded=0;orthogonalLoop=1;jettySize=auto;html=1;strokeColor=default;align=center;verticalAlign=middle;fontFamily=Helvetica;fontSize=11;fontColor=default;labelBackgroundColor=default;endArrow=none;endFill=0;" edge="1" parent="1" source="at10dXYq1sMuarl5lH9b-78" target="at10dXYq1sMuarl5lH9b-76">
          <mxGeometry relative="1" as="geometry" />
        </mxCell>
        <mxCell id="at10dXYq1sMuarl5lH9b-78" value="matchId" style="ellipse;whiteSpace=wrap;html=1;align=center;fontStyle=4;fontFamily=Helvetica;fontSize=11;fontColor=default;labelBackgroundColor=default;flipV=1;" vertex="1" parent="1">
          <mxGeometry x="80.63" y="275" width="64.75" height="44" as="geometry" />
        </mxCell>
        <mxCell id="at10dXYq1sMuarl5lH9b-79" style="rounded=0;orthogonalLoop=1;jettySize=auto;html=1;endArrow=none;endFill=0;" edge="1" parent="1" source="at10dXYq1sMuarl5lH9b-80" target="at10dXYq1sMuarl5lH9b-76">
          <mxGeometry relative="1" as="geometry" />
        </mxCell>
        <mxCell id="at10dXYq1sMuarl5lH9b-80" value="matchDate" style="ellipse;whiteSpace=wrap;html=1;align=center;fontFamily=Helvetica;fontSize=11;fontColor=default;labelBackgroundColor=default;flipV=1;" vertex="1" parent="1">
          <mxGeometry x="59" y="327" width="60" height="40" as="geometry" />
        </mxCell>
        <mxCell id="at10dXYq1sMuarl5lH9b-81" style="edgeStyle=none;rounded=0;orthogonalLoop=1;jettySize=auto;html=1;strokeColor=default;align=center;verticalAlign=middle;fontFamily=Helvetica;fontSize=11;fontColor=default;labelBackgroundColor=default;endArrow=none;endFill=0;exitX=1;exitY=0.5;exitDx=0;exitDy=0;" edge="1" parent="1" target="at10dXYq1sMuarl5lH9b-25">
          <mxGeometry relative="1" as="geometry">
            <mxPoint x="14.5" y="428" as="sourcePoint" />
          </mxGeometry>
        </mxCell>
        <mxCell id="at10dXYq1sMuarl5lH9b-83" style="edgeStyle=none;shape=connector;rounded=0;orthogonalLoop=1;jettySize=auto;html=1;strokeColor=default;align=center;verticalAlign=middle;fontFamily=Helvetica;fontSize=11;fontColor=default;labelBackgroundColor=default;endArrow=none;endFill=0;exitX=1;exitY=0.5;exitDx=0;exitDy=0;" edge="1" parent="1" source="at10dXYq1sMuarl5lH9b-85" target="at10dXYq1sMuarl5lH9b-16">
          <mxGeometry relative="1" as="geometry" />
        </mxCell>
        <mxCell id="at10dXYq1sMuarl5lH9b-84" style="rounded=0;orthogonalLoop=1;jettySize=auto;html=1;endArrow=none;endFill=0;" edge="1" parent="1" source="at10dXYq1sMuarl5lH9b-85" target="at10dXYq1sMuarl5lH9b-114">
          <mxGeometry relative="1" as="geometry" />
        </mxCell>
        <mxCell id="at10dXYq1sMuarl5lH9b-85" value="Is team A of" style="shape=rhombus;perimeter=rhombusPerimeter;whiteSpace=wrap;html=1;align=center;fontFamily=Helvetica;fontSize=11;fontColor=default;labelBackgroundColor=default;" vertex="1" parent="1">
          <mxGeometry x="206.5" y="157" width="90" height="40" as="geometry" />
        </mxCell>
        <mxCell id="at10dXYq1sMuarl5lH9b-86" style="edgeStyle=none;shape=connector;rounded=0;orthogonalLoop=1;jettySize=auto;html=1;strokeColor=default;align=center;verticalAlign=middle;fontFamily=Helvetica;fontSize=11;fontColor=default;labelBackgroundColor=default;endArrow=none;endFill=0;exitX=1;exitY=0.5;exitDx=0;exitDy=0;" edge="1" parent="1" source="at10dXYq1sMuarl5lH9b-88" target="at10dXYq1sMuarl5lH9b-16">
          <mxGeometry relative="1" as="geometry" />
        </mxCell>
        <mxCell id="at10dXYq1sMuarl5lH9b-87" style="edgeStyle=none;shape=connector;rounded=0;orthogonalLoop=1;jettySize=auto;html=1;strokeColor=default;align=center;verticalAlign=middle;fontFamily=Helvetica;fontSize=11;fontColor=default;labelBackgroundColor=default;endArrow=none;endFill=0;" edge="1" parent="1" source="at10dXYq1sMuarl5lH9b-88" target="at10dXYq1sMuarl5lH9b-115">
          <mxGeometry relative="1" as="geometry" />
        </mxCell>
        <mxCell id="at10dXYq1sMuarl5lH9b-88" value="Is team B of" style="shape=rhombus;perimeter=rhombusPerimeter;whiteSpace=wrap;html=1;align=center;fontFamily=Helvetica;fontSize=11;fontColor=default;labelBackgroundColor=default;" vertex="1" parent="1">
          <mxGeometry x="257.5" y="185" width="90" height="40" as="geometry" />
        </mxCell>
        <mxCell id="at10dXYq1sMuarl5lH9b-89" value="N" style="text;html=1;align=center;verticalAlign=middle;resizable=0;points=[];autosize=1;strokeColor=none;fillColor=none;fontFamily=Helvetica;fontSize=11;fontColor=default;labelBackgroundColor=default;" vertex="1" parent="1">
          <mxGeometry x="184" y="147" width="30" height="30" as="geometry" />
        </mxCell>
        <mxCell id="at10dXYq1sMuarl5lH9b-90" value="1" style="text;html=1;align=center;verticalAlign=middle;resizable=0;points=[];autosize=1;strokeColor=none;fillColor=none;fontFamily=Helvetica;fontSize=11;fontColor=default;labelBackgroundColor=default;" vertex="1" parent="1">
          <mxGeometry x="284" y="147" width="30" height="30" as="geometry" />
        </mxCell>
        <mxCell id="at10dXYq1sMuarl5lH9b-91" value="1" style="text;html=1;align=center;verticalAlign=middle;resizable=0;points=[];autosize=1;strokeColor=none;fillColor=none;fontFamily=Helvetica;fontSize=11;fontColor=default;labelBackgroundColor=default;" vertex="1" parent="1">
          <mxGeometry x="335" y="203" width="30" height="30" as="geometry" />
        </mxCell>
        <mxCell id="at10dXYq1sMuarl5lH9b-92" value="N" style="text;html=1;align=center;verticalAlign=middle;resizable=0;points=[];autosize=1;strokeColor=none;fillColor=none;fontFamily=Helvetica;fontSize=11;fontColor=default;labelBackgroundColor=default;" vertex="1" parent="1">
          <mxGeometry x="240" y="205" width="30" height="30" as="geometry" />
        </mxCell>
        <mxCell id="at10dXYq1sMuarl5lH9b-93" style="edgeStyle=none;shape=connector;rounded=0;orthogonalLoop=1;jettySize=auto;html=1;strokeColor=default;align=center;verticalAlign=middle;fontFamily=Helvetica;fontSize=11;fontColor=default;labelBackgroundColor=default;endArrow=none;endFill=0;exitX=1;exitY=0.5;exitDx=0;exitDy=0;" edge="1" parent="1" source="at10dXYq1sMuarl5lH9b-95" target="at10dXYq1sMuarl5lH9b-16">
          <mxGeometry relative="1" as="geometry" />
        </mxCell>
        <mxCell id="at10dXYq1sMuarl5lH9b-94" style="edgeStyle=none;shape=connector;rounded=0;orthogonalLoop=1;jettySize=auto;html=1;strokeColor=default;align=center;verticalAlign=middle;fontFamily=Helvetica;fontSize=11;fontColor=default;labelBackgroundColor=default;endArrow=none;endFill=0;exitX=0;exitY=0.5;exitDx=0;exitDy=0;" edge="1" parent="1" source="at10dXYq1sMuarl5lH9b-95" target="at10dXYq1sMuarl5lH9b-1">
          <mxGeometry relative="1" as="geometry" />
        </mxCell>
        <mxCell id="at10dXYq1sMuarl5lH9b-95" value="Is captain of" style="shape=rhombus;perimeter=rhombusPerimeter;whiteSpace=wrap;html=1;align=center;fontFamily=Helvetica;fontSize=11;fontColor=default;labelBackgroundColor=default;" vertex="1" parent="1">
          <mxGeometry x="349" y="-80" width="120" height="60" as="geometry" />
        </mxCell>
        <mxCell id="at10dXYq1sMuarl5lH9b-96" value="1" style="text;html=1;align=center;verticalAlign=middle;resizable=0;points=[];autosize=1;strokeColor=none;fillColor=none;fontFamily=Helvetica;fontSize=11;fontColor=default;labelBackgroundColor=default;" vertex="1" parent="1">
          <mxGeometry x="449" y="-75" width="30" height="30" as="geometry" />
        </mxCell>
        <mxCell id="at10dXYq1sMuarl5lH9b-97" value="1" style="text;html=1;align=center;verticalAlign=middle;resizable=0;points=[];autosize=1;strokeColor=none;fillColor=none;fontFamily=Helvetica;fontSize=11;fontColor=default;labelBackgroundColor=default;" vertex="1" parent="1">
          <mxGeometry x="334" y="-75" width="30" height="30" as="geometry" />
        </mxCell>
        <mxCell id="at10dXYq1sMuarl5lH9b-98" style="rounded=0;orthogonalLoop=1;jettySize=auto;html=1;entryX=1;entryY=0.25;entryDx=0;entryDy=0;endArrow=none;endFill=0;exitX=0.5;exitY=0;exitDx=0;exitDy=0;" edge="1" parent="1" source="at10dXYq1sMuarl5lH9b-100" target="at10dXYq1sMuarl5lH9b-19">
          <mxGeometry relative="1" as="geometry" />
        </mxCell>
        <mxCell id="at10dXYq1sMuarl5lH9b-99" style="edgeStyle=none;shape=connector;rounded=0;orthogonalLoop=1;jettySize=auto;html=1;entryX=1;entryY=0.75;entryDx=0;entryDy=0;strokeColor=default;align=center;verticalAlign=middle;fontFamily=Helvetica;fontSize=11;fontColor=default;labelBackgroundColor=default;endArrow=none;endFill=0;exitX=0.5;exitY=1;exitDx=0;exitDy=0;" edge="1" parent="1" source="at10dXYq1sMuarl5lH9b-100" target="at10dXYq1sMuarl5lH9b-19">
          <mxGeometry relative="1" as="geometry" />
        </mxCell>
        <mxCell id="at10dXYq1sMuarl5lH9b-100" value="Is parent region of" style="shape=rhombus;perimeter=rhombusPerimeter;whiteSpace=wrap;html=1;align=center;fontFamily=Helvetica;fontSize=11;fontColor=default;labelBackgroundColor=default;" vertex="1" parent="1">
          <mxGeometry x="926" y="527" width="120" height="84" as="geometry" />
        </mxCell>
        <mxCell id="at10dXYq1sMuarl5lH9b-101" value="N" style="text;html=1;align=center;verticalAlign=middle;resizable=0;points=[];autosize=1;strokeColor=none;fillColor=none;fontFamily=Helvetica;fontSize=11;fontColor=default;labelBackgroundColor=default;" vertex="1" parent="1">
          <mxGeometry x="979" y="606" width="30" height="30" as="geometry" />
        </mxCell>
        <mxCell id="at10dXYq1sMuarl5lH9b-102" value="1" style="text;html=1;align=center;verticalAlign=middle;resizable=0;points=[];autosize=1;strokeColor=none;fillColor=none;fontFamily=Helvetica;fontSize=11;fontColor=default;labelBackgroundColor=default;" vertex="1" parent="1">
          <mxGeometry x="976" y="497" width="30" height="30" as="geometry" />
        </mxCell>
        <mxCell id="at10dXYq1sMuarl5lH9b-103" value="Trophy" style="shape=ext;margin=3;double=1;whiteSpace=wrap;html=1;align=center;fontFamily=Helvetica;fontSize=11;fontColor=default;labelBackgroundColor=default;" vertex="1" parent="1">
          <mxGeometry x="456" y="367" width="100" height="40" as="geometry" />
        </mxCell>
        <mxCell id="at10dXYq1sMuarl5lH9b-104" style="edgeStyle=none;rounded=0;orthogonalLoop=1;jettySize=auto;html=1;strokeColor=default;align=center;verticalAlign=middle;fontFamily=Helvetica;fontSize=11;fontColor=default;labelBackgroundColor=default;endArrow=none;endFill=0;exitX=0;exitY=0.5;exitDx=0;exitDy=0;entryX=1;entryY=0;entryDx=0;entryDy=0;" edge="1" parent="1" source="at10dXYq1sMuarl5lH9b-113" target="at10dXYq1sMuarl5lH9b-103">
          <mxGeometry relative="1" as="geometry">
            <mxPoint x="510" y="361" as="sourcePoint" />
          </mxGeometry>
        </mxCell>
        <mxCell id="at10dXYq1sMuarl5lH9b-105" style="edgeStyle=none;shape=connector;rounded=0;orthogonalLoop=1;jettySize=auto;html=1;strokeColor=default;align=center;verticalAlign=middle;fontFamily=Helvetica;fontSize=11;fontColor=default;labelBackgroundColor=default;endArrow=none;endFill=0;exitX=1;exitY=0.5;exitDx=0;exitDy=0;" edge="1" parent="1" source="at10dXYq1sMuarl5lH9b-113" target="at10dXYq1sMuarl5lH9b-16">
          <mxGeometry relative="1" as="geometry">
            <mxPoint x="630" y="90" as="sourcePoint" />
          </mxGeometry>
        </mxCell>
        <mxCell id="at10dXYq1sMuarl5lH9b-106" style="edgeStyle=none;shape=connector;rounded=0;orthogonalLoop=1;jettySize=auto;html=1;strokeColor=default;align=center;verticalAlign=middle;fontFamily=Helvetica;fontSize=11;fontColor=default;labelBackgroundColor=default;endArrow=none;endFill=0;" edge="1" parent="1" source="at10dXYq1sMuarl5lH9b-107" target="at10dXYq1sMuarl5lH9b-103">
          <mxGeometry relative="1" as="geometry" />
        </mxCell>
        <mxCell id="at10dXYq1sMuarl5lH9b-107" value="&lt;span style=&quot;border-bottom: 1px dotted&quot;&gt;trophyName&lt;/span&gt;" style="ellipse;whiteSpace=wrap;html=1;align=center;fontFamily=Helvetica;fontSize=11;fontColor=default;labelBackgroundColor=default;" vertex="1" parent="1">
          <mxGeometry x="466" y="424" width="80" height="40" as="geometry" />
        </mxCell>
        <mxCell id="at10dXYq1sMuarl5lH9b-108" style="edgeStyle=none;shape=connector;rounded=0;orthogonalLoop=1;jettySize=auto;html=1;strokeColor=default;align=center;verticalAlign=middle;fontFamily=Helvetica;fontSize=11;fontColor=default;labelBackgroundColor=default;endArrow=none;endFill=0;" edge="1" parent="1" source="at10dXYq1sMuarl5lH9b-109" target="at10dXYq1sMuarl5lH9b-103">
          <mxGeometry relative="1" as="geometry" />
        </mxCell>
        <mxCell id="at10dXYq1sMuarl5lH9b-109" value="dateAwarded" style="ellipse;whiteSpace=wrap;html=1;align=center;fontFamily=Helvetica;fontSize=11;fontColor=default;labelBackgroundColor=default;" vertex="1" parent="1">
          <mxGeometry x="561.5" y="424" width="80" height="40" as="geometry" />
        </mxCell>
        <mxCell id="at10dXYq1sMuarl5lH9b-110" value="N" style="text;html=1;align=center;verticalAlign=middle;resizable=0;points=[];autosize=1;strokeColor=none;fillColor=none;fontFamily=Helvetica;fontSize=11;fontColor=default;labelBackgroundColor=default;" vertex="1" parent="1">
          <mxGeometry x="611.5" y="254" width="30" height="30" as="geometry" />
        </mxCell>
        <mxCell id="at10dXYq1sMuarl5lH9b-111" value="1" style="text;html=1;align=center;verticalAlign=middle;resizable=0;points=[];autosize=1;strokeColor=none;fillColor=none;fontFamily=Helvetica;fontSize=11;fontColor=default;labelBackgroundColor=default;" vertex="1" parent="1">
          <mxGeometry x="726" y="251" width="30" height="30" as="geometry" />
        </mxCell>
        <mxCell id="at10dXYq1sMuarl5lH9b-112" style="rounded=0;orthogonalLoop=1;jettySize=auto;html=1;entryX=0;entryY=1;entryDx=0;entryDy=0;shape=link;exitX=1;exitY=0.5;exitDx=0;exitDy=0;" edge="1" parent="1" source="at10dXYq1sMuarl5lH9b-122" target="at10dXYq1sMuarl5lH9b-103">
          <mxGeometry relative="1" as="geometry">
            <mxPoint x="798.5381165919284" y="743.269058295964" as="sourcePoint" />
          </mxGeometry>
        </mxCell>
        <mxCell id="at10dXYq1sMuarl5lH9b-113" value="Is awarded to" style="shape=rhombus;perimeter=rhombusPerimeter;whiteSpace=wrap;html=1;align=center;" vertex="1" parent="1">
          <mxGeometry x="628" y="257" width="120" height="60" as="geometry" />
        </mxCell>
        <mxCell id="at10dXYq1sMuarl5lH9b-114" value="result" style="ellipse;whiteSpace=wrap;html=1;align=center;" vertex="1" parent="1">
          <mxGeometry x="221" y="123" width="61" height="28" as="geometry" />
        </mxCell>
        <mxCell id="at10dXYq1sMuarl5lH9b-115" value="result" style="ellipse;whiteSpace=wrap;html=1;align=center;" vertex="1" parent="1">
          <mxGeometry x="272" y="230" width="61" height="28" as="geometry" />
        </mxCell>
        <mxCell id="at10dXYq1sMuarl5lH9b-116" value="" style="group" vertex="1" connectable="0" parent="1">
          <mxGeometry x="315" y="281" width="170" height="62" as="geometry" />
        </mxCell>
        <mxCell id="at10dXYq1sMuarl5lH9b-117" value="Compete in" style="shape=rhombus;perimeter=rhombusPerimeter;whiteSpace=wrap;html=1;align=center;fontFamily=Helvetica;fontSize=11;fontColor=default;labelBackgroundColor=default;" vertex="1" parent="at10dXYq1sMuarl5lH9b-116">
          <mxGeometry x="32.5" width="120" height="60" as="geometry" />
        </mxCell>
        <mxCell id="at10dXYq1sMuarl5lH9b-118" value="M" style="text;html=1;align=center;verticalAlign=middle;resizable=0;points=[];autosize=1;strokeColor=none;fillColor=none;fontFamily=Helvetica;fontSize=11;fontColor=default;labelBackgroundColor=default;" vertex="1" parent="at10dXYq1sMuarl5lH9b-116">
          <mxGeometry x="138" width="30" height="30" as="geometry" />
        </mxCell>
        <mxCell id="at10dXYq1sMuarl5lH9b-119" value="&lt;div&gt;N&lt;/div&gt;" style="text;html=1;align=center;verticalAlign=middle;resizable=0;points=[];autosize=1;strokeColor=none;fillColor=none;fontFamily=Helvetica;fontSize=11;fontColor=default;labelBackgroundColor=default;" vertex="1" parent="at10dXYq1sMuarl5lH9b-116">
          <mxGeometry x="9" y="4" width="30" height="30" as="geometry" />
        </mxCell>
        <mxCell id="at10dXYq1sMuarl5lH9b-120" value="" style="group" vertex="1" connectable="0" parent="1">
          <mxGeometry x="160" y="433" width="151.5" height="60" as="geometry" />
        </mxCell>
        <mxCell id="at10dXYq1sMuarl5lH9b-121" value="1" style="text;html=1;align=center;verticalAlign=middle;resizable=0;points=[];autosize=1;strokeColor=none;fillColor=none;" vertex="1" parent="at10dXYq1sMuarl5lH9b-120">
          <mxGeometry x="19" y="34" width="25" height="26" as="geometry" />
        </mxCell>
        <mxCell id="at10dXYq1sMuarl5lH9b-122" value="&lt;div&gt;Has&lt;/div&gt;" style="shape=rhombus;double=1;perimeter=rhombusPerimeter;whiteSpace=wrap;html=1;align=center;fontFamily=Helvetica;fontSize=11;fontColor=default;labelBackgroundColor=default;" vertex="1" parent="at10dXYq1sMuarl5lH9b-120">
          <mxGeometry x="31.5" width="120" height="60" as="geometry" />
        </mxCell>
        <mxCell id="at10dXYq1sMuarl5lH9b-123" style="edgeStyle=none;shape=connector;rounded=0;orthogonalLoop=1;jettySize=auto;html=1;exitX=0;exitY=0.5;exitDx=0;exitDy=0;strokeColor=default;align=center;verticalAlign=middle;fontFamily=Helvetica;fontSize=11;fontColor=default;labelBackgroundColor=default;endArrow=none;endFill=0;" edge="1" parent="1" source="at10dXYq1sMuarl5lH9b-48" target="at10dXYq1sMuarl5lH9b-48">
          <mxGeometry relative="1" as="geometry" />
        </mxCell>
        <mxCell id="at10dXYq1sMuarl5lH9b-124" value="1" style="text;html=1;align=center;verticalAlign=middle;resizable=0;points=[];autosize=1;strokeColor=none;fillColor=none;" vertex="1" parent="1">
          <mxGeometry x="305.5" y="467" width="25" height="26" as="geometry" />
        </mxCell>
        <mxCell id="at10dXYq1sMuarl5lH9b-125" value="Major Region" style="text;html=1;align=center;verticalAlign=middle;resizable=0;points=[];autosize=1;strokeColor=none;fillColor=none;" vertex="1" parent="1">
          <mxGeometry x="882" y="506" width="89" height="26" as="geometry" />
        </mxCell>
        <mxCell id="at10dXYq1sMuarl5lH9b-126" value="Minor Region" style="text;html=1;align=center;verticalAlign=middle;resizable=0;points=[];autosize=1;strokeColor=none;fillColor=none;" vertex="1" parent="1">
          <mxGeometry x="869" y="606" width="89" height="26" as="geometry" />
        </mxCell>
        <mxCell id="at10dXYq1sMuarl5lH9b-127" style="rounded=0;orthogonalLoop=1;jettySize=auto;html=1;endArrow=none;endFill=0;" edge="1" parent="1" source="at10dXYq1sMuarl5lH9b-128" target="at10dXYq1sMuarl5lH9b-117">
          <mxGeometry relative="1" as="geometry" />
        </mxCell>
        <mxCell id="at10dXYq1sMuarl5lH9b-128" value="rank" style="ellipse;whiteSpace=wrap;html=1;align=center;" vertex="1" parent="1">
          <mxGeometry x="342" y="349" width="61" height="28" as="geometry" />
        </mxCell>
        <mxCell id="at10dXYq1sMuarl5lH9b-129" style="rounded=0;orthogonalLoop=1;jettySize=auto;html=1;endArrow=none;endFill=0;" edge="1" parent="1" source="at10dXYq1sMuarl5lH9b-130" target="at10dXYq1sMuarl5lH9b-16">
          <mxGeometry relative="1" as="geometry" />
        </mxCell>
        <mxCell id="at10dXYq1sMuarl5lH9b-130" value="numberOfTrophy" style="ellipse;whiteSpace=wrap;html=1;align=center;dashed=1;fontFamily=Helvetica;fontSize=11;fontColor=default;labelBackgroundColor=default;" vertex="1" parent="1">
          <mxGeometry x="884" y="88" width="100" height="40" as="geometry" />
        </mxCell>
        <mxCell id="at10dXYq1sMuarl5lH9b-131" style="edgeStyle=none;shape=connector;rounded=0;orthogonalLoop=1;jettySize=auto;html=1;strokeColor=default;align=center;verticalAlign=middle;fontFamily=Helvetica;fontSize=11;fontColor=default;labelBackgroundColor=default;endArrow=none;endFill=0;" edge="1" parent="1" source="at10dXYq1sMuarl5lH9b-132" target="at10dXYq1sMuarl5lH9b-16">
          <mxGeometry relative="1" as="geometry" />
        </mxCell>
        <mxCell id="at10dXYq1sMuarl5lH9b-132" value="numberOfPlayer" style="ellipse;whiteSpace=wrap;html=1;align=center;dashed=1;fontFamily=Helvetica;fontSize=11;fontColor=default;labelBackgroundColor=default;" vertex="1" parent="1">
          <mxGeometry x="863.5" y="132" width="100" height="40" as="geometry" />
        </mxCell>
        <mxCell id="at10dXYq1sMuarl5lH9b-133" style="edgeStyle=none;shape=connector;rounded=0;orthogonalLoop=1;jettySize=auto;html=1;strokeColor=default;align=center;verticalAlign=middle;fontFamily=Helvetica;fontSize=11;fontColor=default;labelBackgroundColor=default;endArrow=none;endFill=0;" edge="1" parent="1" source="at10dXYq1sMuarl5lH9b-134" target="at10dXYq1sMuarl5lH9b-19">
          <mxGeometry relative="1" as="geometry" />
        </mxCell>
        <mxCell id="at10dXYq1sMuarl5lH9b-134" value="description" style="ellipse;whiteSpace=wrap;html=1;align=center;fontFamily=Helvetica;fontSize=11;fontColor=default;labelBackgroundColor=default;" vertex="1" parent="1">
          <mxGeometry x="716" y="484" width="80" height="40" as="geometry" />
        </mxCell>
        <mxCell id="at10dXYq1sMuarl5lH9b-135" style="edgeStyle=none;shape=connector;rounded=0;orthogonalLoop=1;jettySize=auto;html=1;strokeColor=default;align=center;verticalAlign=middle;fontFamily=Helvetica;fontSize=11;fontColor=default;labelBackgroundColor=default;endArrow=none;endFill=0;" edge="1" parent="1" source="at10dXYq1sMuarl5lH9b-136" target="at10dXYq1sMuarl5lH9b-19">
          <mxGeometry relative="1" as="geometry" />
        </mxCell>
        <mxCell id="at10dXYq1sMuarl5lH9b-136" value="numberOfTeams" style="ellipse;whiteSpace=wrap;html=1;align=center;dashed=1;fontFamily=Helvetica;fontSize=11;fontColor=default;labelBackgroundColor=default;" vertex="1" parent="1">
          <mxGeometry x="676.5" y="599" width="100" height="40" as="geometry" />
        </mxCell>
        <mxCell id="at10dXYq1sMuarl5lH9b-145" value="" style="group" vertex="1" connectable="0" parent="1">
          <mxGeometry x="-74.75" y="147" width="120" height="107" as="geometry" />
        </mxCell>
        <mxCell id="at10dXYq1sMuarl5lH9b-146" value="Take part in" style="shape=rhombus;perimeter=rhombusPerimeter;whiteSpace=wrap;html=1;align=center;fontFamily=Helvetica;fontSize=11;fontColor=default;labelBackgroundColor=default;" vertex="1" parent="at10dXYq1sMuarl5lH9b-145">
          <mxGeometry y="19" width="120" height="60" as="geometry" />
        </mxCell>
        <mxCell id="at10dXYq1sMuarl5lH9b-147" value="N" style="text;html=1;align=center;verticalAlign=middle;resizable=0;points=[];autosize=1;strokeColor=none;fillColor=none;fontFamily=Helvetica;fontSize=11;fontColor=default;labelBackgroundColor=default;" vertex="1" parent="at10dXYq1sMuarl5lH9b-145">
          <mxGeometry x="57.5" width="30" height="30" as="geometry" />
        </mxCell>
        <mxCell id="at10dXYq1sMuarl5lH9b-148" value="N" style="text;html=1;align=center;verticalAlign=middle;resizable=0;points=[];autosize=1;strokeColor=none;fillColor=none;fontFamily=Helvetica;fontSize=11;fontColor=default;labelBackgroundColor=default;" vertex="1" parent="at10dXYq1sMuarl5lH9b-145">
          <mxGeometry x="59.5" y="80" width="26" height="25" as="geometry" />
        </mxCell>
        <mxCell id="at10dXYq1sMuarl5lH9b-149" style="edgeStyle=none;shape=connector;rounded=0;orthogonalLoop=1;jettySize=auto;html=1;strokeColor=default;align=center;verticalAlign=middle;fontFamily=Helvetica;fontSize=11;fontColor=default;labelBackgroundColor=default;endArrow=none;endFill=0;" edge="1" parent="1" source="at10dXYq1sMuarl5lH9b-146" target="at10dXYq1sMuarl5lH9b-1">
          <mxGeometry relative="1" as="geometry" />
        </mxCell>
        <mxCell id="at10dXYq1sMuarl5lH9b-157" style="edgeStyle=none;shape=connector;rounded=0;orthogonalLoop=1;jettySize=auto;html=1;strokeColor=default;align=center;verticalAlign=middle;fontFamily=Helvetica;fontSize=11;fontColor=default;labelBackgroundColor=default;endArrow=none;endFill=0;" edge="1" parent="1" source="at10dXYq1sMuarl5lH9b-158" target="at10dXYq1sMuarl5lH9b-76">
          <mxGeometry relative="1" as="geometry" />
        </mxCell>
        <mxCell id="at10dXYq1sMuarl5lH9b-158" value="bestOf" style="ellipse;whiteSpace=wrap;html=1;align=center;fontFamily=Helvetica;fontSize=11;fontColor=default;labelBackgroundColor=default;flipV=1;" vertex="1" parent="1">
          <mxGeometry x="-44.75" y="330.5" width="60" height="40" as="geometry" />
        </mxCell>
        <mxCell id="at10dXYq1sMuarl5lH9b-218" style="edgeStyle=none;shape=connector;rounded=0;orthogonalLoop=1;jettySize=auto;html=1;strokeColor=default;align=center;verticalAlign=middle;fontFamily=Helvetica;fontSize=11;fontColor=default;labelBackgroundColor=default;endArrow=none;endFill=0;" edge="1" parent="1" source="at10dXYq1sMuarl5lH9b-162" target="at10dXYq1sMuarl5lH9b-217">
          <mxGeometry relative="1" as="geometry" />
        </mxCell>
        <mxCell id="at10dXYq1sMuarl5lH9b-162" value="Group stage" style="whiteSpace=wrap;html=1;align=center;fontFamily=Helvetica;fontSize=11;fontColor=default;labelBackgroundColor=default;flipV=1;" vertex="1" parent="1">
          <mxGeometry x="-637.5" y="537" width="65" height="40" as="geometry" />
        </mxCell>
        <mxCell id="at10dXYq1sMuarl5lH9b-166" style="edgeStyle=none;shape=link;rounded=0;orthogonalLoop=1;jettySize=auto;html=1;entryX=0;entryY=0.5;entryDx=0;entryDy=0;strokeColor=default;align=center;verticalAlign=middle;fontFamily=Helvetica;fontSize=11;fontColor=default;labelBackgroundColor=default;endArrow=none;endFill=0;" edge="1" parent="1" target="at10dXYq1sMuarl5lH9b-169">
          <mxGeometry relative="1" as="geometry">
            <mxPoint x="-229.00222222222217" y="205" as="sourcePoint" />
          </mxGeometry>
        </mxCell>
        <mxCell id="at10dXYq1sMuarl5lH9b-167" value="Game" style="whiteSpace=wrap;html=1;align=center;fontFamily=Helvetica;fontSize=11;fontColor=default;labelBackgroundColor=default;" vertex="1" parent="1">
          <mxGeometry x="-332" y="170" width="100" height="40" as="geometry" />
        </mxCell>
        <mxCell id="at10dXYq1sMuarl5lH9b-168" style="edgeStyle=none;shape=connector;rounded=0;orthogonalLoop=1;jettySize=auto;html=1;strokeColor=default;align=center;verticalAlign=middle;fontFamily=Helvetica;fontSize=11;fontColor=default;labelBackgroundColor=default;endArrow=none;endFill=0;exitX=1;exitY=0.5;exitDx=0;exitDy=0;" edge="1" parent="1" source="at10dXYq1sMuarl5lH9b-169" target="at10dXYq1sMuarl5lH9b-76">
          <mxGeometry relative="1" as="geometry" />
        </mxCell>
        <mxCell id="at10dXYq1sMuarl5lH9b-169" value="Be a part of" style="shape=rhombus;perimeter=rhombusPerimeter;whiteSpace=wrap;html=1;align=center;fontFamily=Helvetica;fontSize=11;fontColor=default;labelBackgroundColor=default;" vertex="1" parent="1">
          <mxGeometry x="-194.28" y="207" width="89" height="46" as="geometry" />
        </mxCell>
        <mxCell id="at10dXYq1sMuarl5lH9b-170" value="1" style="text;html=1;align=center;verticalAlign=middle;resizable=0;points=[];autosize=1;strokeColor=none;fillColor=none;fontFamily=Helvetica;fontSize=11;fontColor=default;labelBackgroundColor=default;" vertex="1" parent="1">
          <mxGeometry x="-117.78" y="208" width="24" height="25" as="geometry" />
        </mxCell>
        <mxCell id="at10dXYq1sMuarl5lH9b-171" value="N" style="text;html=1;align=center;verticalAlign=middle;resizable=0;points=[];autosize=1;strokeColor=none;fillColor=none;fontFamily=Helvetica;fontSize=11;fontColor=default;labelBackgroundColor=default;" vertex="1" parent="1">
          <mxGeometry x="-206.78" y="205" width="26" height="25" as="geometry" />
        </mxCell>
        <mxCell id="at10dXYq1sMuarl5lH9b-172" style="edgeStyle=none;shape=connector;rounded=0;orthogonalLoop=1;jettySize=auto;html=1;strokeColor=default;align=center;verticalAlign=middle;fontFamily=Helvetica;fontSize=11;fontColor=default;labelBackgroundColor=default;endArrow=none;endFill=0;exitX=1;exitY=0.5;exitDx=0;exitDy=0;" edge="1" parent="1" source="at10dXYq1sMuarl5lH9b-174" target="at10dXYq1sMuarl5lH9b-1">
          <mxGeometry relative="1" as="geometry" />
        </mxCell>
        <mxCell id="at10dXYq1sMuarl5lH9b-173" style="edgeStyle=none;shape=connector;rounded=0;orthogonalLoop=1;jettySize=auto;html=1;strokeColor=default;align=center;verticalAlign=middle;fontFamily=Helvetica;fontSize=11;fontColor=default;labelBackgroundColor=default;endArrow=none;endFill=0;exitX=0;exitY=0.5;exitDx=0;exitDy=0;" edge="1" parent="1" source="at10dXYq1sMuarl5lH9b-174" target="at10dXYq1sMuarl5lH9b-167">
          <mxGeometry relative="1" as="geometry" />
        </mxCell>
        <mxCell id="at10dXYq1sMuarl5lH9b-174" value="Play in" style="shape=rhombus;perimeter=rhombusPerimeter;whiteSpace=wrap;html=1;align=center;fontFamily=Helvetica;fontSize=11;fontColor=default;labelBackgroundColor=default;" vertex="1" parent="1">
          <mxGeometry x="-194" y="113.5" width="89" height="46" as="geometry" />
        </mxCell>
        <mxCell id="at10dXYq1sMuarl5lH9b-175" value="N" style="text;html=1;align=center;verticalAlign=middle;resizable=0;points=[];autosize=1;strokeColor=none;fillColor=none;fontFamily=Helvetica;fontSize=11;fontColor=default;labelBackgroundColor=default;" vertex="1" parent="1">
          <mxGeometry x="-207" y="135.5" width="26" height="25" as="geometry" />
        </mxCell>
        <mxCell id="at10dXYq1sMuarl5lH9b-176" value="M" style="text;html=1;align=center;verticalAlign=middle;resizable=0;points=[];autosize=1;strokeColor=none;fillColor=none;fontFamily=Helvetica;fontSize=11;fontColor=default;labelBackgroundColor=default;" vertex="1" parent="1">
          <mxGeometry x="-103.5" y="132.5" width="27" height="25" as="geometry" />
        </mxCell>
        <mxCell id="at10dXYq1sMuarl5lH9b-180" style="edgeStyle=orthogonalEdgeStyle;rounded=0;hachureGap=4;orthogonalLoop=1;jettySize=auto;html=1;fontFamily=Architects Daughter;fontSource=https%3A%2F%2Ffonts.googleapis.com%2Fcss%3Ffamily%3DArchitects%2BDaughter;endArrow=none;endFill=0;" edge="1" parent="1" source="at10dXYq1sMuarl5lH9b-181" target="at10dXYq1sMuarl5lH9b-16">
          <mxGeometry relative="1" as="geometry" />
        </mxCell>
        <mxCell id="at10dXYq1sMuarl5lH9b-181" value="Belongs to" style="shape=rhombus;perimeter=rhombusPerimeter;whiteSpace=wrap;html=1;align=center;fontFamily=Helvetica;fontSize=11;fontColor=default;labelBackgroundColor=default;" vertex="1" parent="1">
          <mxGeometry x="185.5" y="-163" width="120" height="60" as="geometry" />
        </mxCell>
        <mxCell id="at10dXYq1sMuarl5lH9b-182" style="edgeStyle=none;shape=connector;rounded=0;orthogonalLoop=1;jettySize=auto;html=1;strokeColor=default;align=center;verticalAlign=middle;fontFamily=Helvetica;fontSize=11;fontColor=default;labelBackgroundColor=default;endArrow=none;endFill=0;" edge="1" parent="1" source="at10dXYq1sMuarl5lH9b-183" target="at10dXYq1sMuarl5lH9b-16">
          <mxGeometry relative="1" as="geometry" />
        </mxCell>
        <mxCell id="at10dXYq1sMuarl5lH9b-183" value="teamName" style="ellipse;whiteSpace=wrap;html=1;align=center;fontFamily=Helvetica;fontSize=11;fontColor=default;labelBackgroundColor=default;flipV=1;" vertex="1" parent="1">
          <mxGeometry x="884" y="-73" width="60" height="40" as="geometry" />
        </mxCell>
        <mxCell id="at10dXYq1sMuarl5lH9b-184" value="M" style="text;html=1;align=center;verticalAlign=middle;resizable=0;points=[];autosize=1;strokeColor=none;fillColor=none;fontFamily=Helvetica;" vertex="1" parent="1">
          <mxGeometry x="285" y="-162" width="30" height="30" as="geometry" />
        </mxCell>
        <mxCell id="at10dXYq1sMuarl5lH9b-185" value="N" style="text;html=1;align=center;verticalAlign=middle;resizable=0;points=[];autosize=1;strokeColor=none;fillColor=none;fontFamily=Helvetica;" vertex="1" parent="1">
          <mxGeometry x="165" y="-162" width="30" height="30" as="geometry" />
        </mxCell>
        <mxCell id="at10dXYq1sMuarl5lH9b-186" style="rounded=0;orthogonalLoop=1;jettySize=auto;html=1;endArrow=none;endFill=0;" edge="1" parent="1" source="at10dXYq1sMuarl5lH9b-187" target="at10dXYq1sMuarl5lH9b-162">
          <mxGeometry relative="1" as="geometry" />
        </mxCell>
        <mxCell id="at10dXYq1sMuarl5lH9b-187" value="groupId" style="ellipse;whiteSpace=wrap;html=1;align=center;fontStyle=4;fontFamily=Helvetica;fontSize=11;fontColor=default;labelBackgroundColor=default;flipV=1;" vertex="1" parent="1">
          <mxGeometry x="-737" y="497" width="90" height="40" as="geometry" />
        </mxCell>
        <mxCell id="at10dXYq1sMuarl5lH9b-188" style="edgeStyle=none;shape=connector;rounded=0;orthogonalLoop=1;jettySize=auto;html=1;strokeColor=default;align=center;verticalAlign=middle;fontFamily=Helvetica;fontSize=11;fontColor=default;labelBackgroundColor=default;endArrow=none;endFill=0;" edge="1" parent="1" source="at10dXYq1sMuarl5lH9b-189" target="at10dXYq1sMuarl5lH9b-162">
          <mxGeometry relative="1" as="geometry" />
        </mxCell>
        <mxCell id="at10dXYq1sMuarl5lH9b-189" value="groupName" style="ellipse;whiteSpace=wrap;html=1;align=center;fontFamily=Helvetica;fontSize=11;fontColor=default;labelBackgroundColor=default;flipV=1;" vertex="1" parent="1">
          <mxGeometry x="-647" y="461" width="78" height="40" as="geometry" />
        </mxCell>
        <mxCell id="at10dXYq1sMuarl5lH9b-190" style="edgeStyle=none;shape=connector;rounded=0;orthogonalLoop=1;jettySize=auto;html=1;strokeColor=default;align=center;verticalAlign=middle;fontFamily=Helvetica;fontSize=11;fontColor=default;labelBackgroundColor=default;endArrow=none;endFill=0;" edge="1" parent="1" source="at10dXYq1sMuarl5lH9b-191" target="at10dXYq1sMuarl5lH9b-181">
          <mxGeometry relative="1" as="geometry" />
        </mxCell>
        <mxCell id="at10dXYq1sMuarl5lH9b-191" value="point" style="ellipse;whiteSpace=wrap;html=1;align=center;fontFamily=Helvetica;fontSize=11;fontColor=default;labelBackgroundColor=default;flipV=1;" vertex="1" parent="1">
          <mxGeometry x="293" y="-203" width="60" height="40" as="geometry" />
        </mxCell>
        <mxCell id="at10dXYq1sMuarl5lH9b-192" style="edgeStyle=none;shape=connector;rounded=0;orthogonalLoop=1;jettySize=auto;html=1;strokeColor=default;align=center;verticalAlign=middle;fontFamily=Helvetica;fontSize=11;fontColor=default;labelBackgroundColor=default;endArrow=none;endFill=0;" edge="1" parent="1" source="at10dXYq1sMuarl5lH9b-193" target="at10dXYq1sMuarl5lH9b-181">
          <mxGeometry relative="1" as="geometry" />
        </mxCell>
        <mxCell id="at10dXYq1sMuarl5lH9b-193" value="win" style="ellipse;whiteSpace=wrap;html=1;align=center;fontFamily=Helvetica;fontSize=11;fontColor=default;labelBackgroundColor=default;flipV=1;" vertex="1" parent="1">
          <mxGeometry x="245.5" y="-243" width="60" height="40" as="geometry" />
        </mxCell>
        <mxCell id="at10dXYq1sMuarl5lH9b-194" style="edgeStyle=none;shape=connector;rounded=0;orthogonalLoop=1;jettySize=auto;html=1;strokeColor=default;align=center;verticalAlign=middle;fontFamily=Helvetica;fontSize=11;fontColor=default;labelBackgroundColor=default;endArrow=none;endFill=0;" edge="1" parent="1" source="at10dXYq1sMuarl5lH9b-195" target="at10dXYq1sMuarl5lH9b-181">
          <mxGeometry relative="1" as="geometry" />
        </mxCell>
        <mxCell id="at10dXYq1sMuarl5lH9b-195" value="loss" style="ellipse;whiteSpace=wrap;html=1;align=center;fontFamily=Helvetica;fontSize=11;fontColor=default;labelBackgroundColor=default;flipV=1;" vertex="1" parent="1">
          <mxGeometry x="169" y="-242" width="60" height="40" as="geometry" />
        </mxCell>
        <mxCell id="at10dXYq1sMuarl5lH9b-196" style="edgeStyle=none;shape=connector;rounded=0;orthogonalLoop=1;jettySize=auto;html=1;strokeColor=default;align=center;verticalAlign=middle;fontFamily=Helvetica;fontSize=11;fontColor=default;labelBackgroundColor=default;endArrow=none;endFill=0;" edge="1" parent="1" source="at10dXYq1sMuarl5lH9b-197" target="at10dXYq1sMuarl5lH9b-181">
          <mxGeometry relative="1" as="geometry" />
        </mxCell>
        <mxCell id="at10dXYq1sMuarl5lH9b-197" value="draw" style="ellipse;whiteSpace=wrap;html=1;align=center;fontFamily=Helvetica;fontSize=11;fontColor=default;labelBackgroundColor=default;flipV=1;" vertex="1" parent="1">
          <mxGeometry x="124" y="-202" width="60" height="40" as="geometry" />
        </mxCell>
        <mxCell id="at10dXYq1sMuarl5lH9b-198" style="edgeStyle=none;shape=connector;rounded=0;orthogonalLoop=1;jettySize=auto;html=1;strokeColor=default;align=center;verticalAlign=middle;fontFamily=Helvetica;fontSize=11;fontColor=default;labelBackgroundColor=default;endArrow=none;endFill=0;" edge="1" parent="1" source="at10dXYq1sMuarl5lH9b-199" target="at10dXYq1sMuarl5lH9b-167">
          <mxGeometry relative="1" as="geometry" />
        </mxCell>
        <mxCell id="at10dXYq1sMuarl5lH9b-199" value="gameId" style="ellipse;whiteSpace=wrap;html=1;align=center;fontStyle=4;fontFamily=Helvetica;fontSize=11;fontColor=default;labelBackgroundColor=default;flipV=1;" vertex="1" parent="1">
          <mxGeometry x="-379.5" y="90" width="90" height="40" as="geometry" />
        </mxCell>
        <mxCell id="at10dXYq1sMuarl5lH9b-200" style="edgeStyle=none;shape=connector;rounded=0;orthogonalLoop=1;jettySize=auto;html=1;strokeColor=default;align=center;verticalAlign=middle;fontFamily=Helvetica;fontSize=11;fontColor=default;labelBackgroundColor=default;endArrow=none;endFill=0;" edge="1" parent="1" source="at10dXYq1sMuarl5lH9b-201" target="at10dXYq1sMuarl5lH9b-167">
          <mxGeometry relative="1" as="geometry" />
        </mxCell>
        <mxCell id="at10dXYq1sMuarl5lH9b-201" value="gameNumber" style="ellipse;whiteSpace=wrap;html=1;align=center;fontFamily=Helvetica;fontSize=11;fontColor=default;labelBackgroundColor=default;flipV=1;" vertex="1" parent="1">
          <mxGeometry x="-406" y="132" width="77" height="31" as="geometry" />
        </mxCell>
        <mxCell id="at10dXYq1sMuarl5lH9b-202" style="edgeStyle=none;shape=connector;rounded=0;orthogonalLoop=1;jettySize=auto;html=1;strokeColor=default;align=center;verticalAlign=middle;fontFamily=Helvetica;fontSize=11;fontColor=default;labelBackgroundColor=default;endArrow=none;endFill=0;" edge="1" parent="1" source="at10dXYq1sMuarl5lH9b-204" target="at10dXYq1sMuarl5lH9b-167">
          <mxGeometry relative="1" as="geometry" />
        </mxCell>
        <mxCell id="at10dXYq1sMuarl5lH9b-203" style="edgeStyle=orthogonalEdgeStyle;shape=connector;rounded=0;orthogonalLoop=1;jettySize=auto;html=1;strokeColor=default;align=center;verticalAlign=middle;fontFamily=Helvetica;fontSize=11;fontColor=default;labelBackgroundColor=default;endArrow=none;endFill=0;" edge="1" parent="1" source="at10dXYq1sMuarl5lH9b-204" target="at10dXYq1sMuarl5lH9b-16">
          <mxGeometry relative="1" as="geometry">
            <Array as="points">
              <mxPoint x="800" y="-90" />
            </Array>
          </mxGeometry>
        </mxCell>
        <mxCell id="at10dXYq1sMuarl5lH9b-204" value="Win the game" style="shape=rhombus;perimeter=rhombusPerimeter;whiteSpace=wrap;html=1;align=center;fontFamily=Helvetica;fontSize=11;fontColor=default;labelBackgroundColor=default;" vertex="1" parent="1">
          <mxGeometry x="-342" y="-120" width="120" height="60" as="geometry" />
        </mxCell>
        <mxCell id="at10dXYq1sMuarl5lH9b-205" value="N" style="text;html=1;align=center;verticalAlign=middle;resizable=0;points=[];autosize=1;strokeColor=none;fillColor=none;fontFamily=Helvetica;fontSize=11;fontColor=default;labelBackgroundColor=default;" vertex="1" parent="1">
          <mxGeometry x="-285" y="-65" width="30" height="30" as="geometry" />
        </mxCell>
        <mxCell id="at10dXYq1sMuarl5lH9b-206" value="1" style="text;html=1;align=center;verticalAlign=middle;resizable=0;points=[];autosize=1;strokeColor=none;fillColor=none;fontFamily=Helvetica;fontSize=11;fontColor=default;labelBackgroundColor=default;" vertex="1" parent="1">
          <mxGeometry x="-234" y="-95" width="30" height="30" as="geometry" />
        </mxCell>
        <mxCell id="at10dXYq1sMuarl5lH9b-219" style="edgeStyle=none;shape=connector;rounded=0;orthogonalLoop=1;jettySize=auto;html=1;strokeColor=default;align=center;verticalAlign=middle;fontFamily=Helvetica;fontSize=11;fontColor=default;labelBackgroundColor=default;endArrow=none;endFill=0;" edge="1" parent="1" source="at10dXYq1sMuarl5lH9b-211" target="at10dXYq1sMuarl5lH9b-217">
          <mxGeometry relative="1" as="geometry" />
        </mxCell>
        <mxCell id="at10dXYq1sMuarl5lH9b-211" value="KO stage" style="whiteSpace=wrap;html=1;align=center;fontFamily=Helvetica;fontSize=11;fontColor=default;labelBackgroundColor=default;flipV=1;" vertex="1" parent="1">
          <mxGeometry x="-637.5" y="607" width="65" height="40" as="geometry" />
        </mxCell>
        <mxCell id="at10dXYq1sMuarl5lH9b-212" value="Stage" style="whiteSpace=wrap;html=1;align=center;" vertex="1" parent="1">
          <mxGeometry x="-401" y="572" width="100" height="40" as="geometry" />
        </mxCell>
        <mxCell id="at10dXYq1sMuarl5lH9b-214" style="rounded=0;orthogonalLoop=1;jettySize=auto;html=1;endArrow=none;endFill=0;" edge="1" parent="1" source="at10dXYq1sMuarl5lH9b-213" target="at10dXYq1sMuarl5lH9b-25">
          <mxGeometry relative="1" as="geometry" />
        </mxCell>
        <mxCell id="at10dXYq1sMuarl5lH9b-215" style="edgeStyle=none;shape=connector;rounded=0;orthogonalLoop=1;jettySize=auto;html=1;strokeColor=default;align=center;verticalAlign=middle;fontFamily=Helvetica;fontSize=11;fontColor=default;labelBackgroundColor=default;endArrow=none;endFill=0;" edge="1" parent="1" source="at10dXYq1sMuarl5lH9b-213" target="at10dXYq1sMuarl5lH9b-212">
          <mxGeometry relative="1" as="geometry" />
        </mxCell>
        <mxCell id="at10dXYq1sMuarl5lH9b-213" value="Relationship" style="shape=rhombus;perimeter=rhombusPerimeter;whiteSpace=wrap;html=1;align=center;" vertex="1" parent="1">
          <mxGeometry x="-232" y="559" width="120" height="60" as="geometry" />
        </mxCell>
        <mxCell id="at10dXYq1sMuarl5lH9b-220" style="edgeStyle=none;shape=connector;rounded=0;orthogonalLoop=1;jettySize=auto;html=1;strokeColor=default;align=center;verticalAlign=middle;fontFamily=Helvetica;fontSize=11;fontColor=default;labelBackgroundColor=default;endArrow=none;endFill=0;" edge="1" parent="1" source="at10dXYq1sMuarl5lH9b-217" target="at10dXYq1sMuarl5lH9b-212">
          <mxGeometry relative="1" as="geometry" />
        </mxCell>
        <mxCell id="at10dXYq1sMuarl5lH9b-217" value="u" style="ellipse;whiteSpace=wrap;html=1;aspect=fixed;fontFamily=Helvetica;fontSize=11;fontColor=default;labelBackgroundColor=default;" vertex="1" parent="1">
          <mxGeometry x="-503" y="571" width="40" height="40" as="geometry" />
        </mxCell>
        <mxCell id="at10dXYq1sMuarl5lH9b-222" style="edgeStyle=none;shape=connector;rounded=0;orthogonalLoop=1;jettySize=auto;html=1;strokeColor=default;align=center;verticalAlign=middle;fontFamily=Helvetica;fontSize=11;fontColor=default;labelBackgroundColor=default;endArrow=none;endFill=0;" edge="1" parent="1" source="at10dXYq1sMuarl5lH9b-221" target="at10dXYq1sMuarl5lH9b-211">
          <mxGeometry relative="1" as="geometry" />
        </mxCell>
        <mxCell id="at10dXYq1sMuarl5lH9b-221" value="groupId" style="ellipse;whiteSpace=wrap;html=1;align=center;fontStyle=4;fontFamily=Helvetica;fontSize=11;fontColor=default;labelBackgroundColor=default;flipV=1;" vertex="1" parent="1">
          <mxGeometry x="-653" y="677" width="90" height="40" as="geometry" />
        </mxCell>
        <mxCell id="Yt69JGjLdErfYXf5_XKO-1" style="edgeStyle=none;shape=connector;rounded=0;orthogonalLoop=1;jettySize=auto;html=1;strokeColor=default;align=center;verticalAlign=middle;fontFamily=Helvetica;fontSize=11;fontColor=default;labelBackgroundColor=default;endArrow=none;endFill=0;" edge="1" parent="1" source="at10dXYq1sMuarl5lH9b-223" target="at10dXYq1sMuarl5lH9b-76">
          <mxGeometry relative="1" as="geometry" />
        </mxCell>
        <mxCell id="at10dXYq1sMuarl5lH9b-223" value="Relationship" style="shape=rhombus;perimeter=rhombusPerimeter;whiteSpace=wrap;html=1;align=center;fontFamily=Helvetica;fontSize=11;fontColor=default;labelBackgroundColor=default;" vertex="1" parent="1">
          <mxGeometry x="-399" y="355" width="120" height="60" as="geometry" />
        </mxCell>
        <mxCell id="Yt69JGjLdErfYXf5_XKO-2" style="edgeStyle=none;shape=connector;rounded=0;orthogonalLoop=1;jettySize=auto;html=1;strokeColor=default;align=center;verticalAlign=middle;fontFamily=Helvetica;fontSize=11;fontColor=default;labelBackgroundColor=default;endArrow=none;endFill=0;" edge="1" parent="1" source="at10dXYq1sMuarl5lH9b-224" target="at10dXYq1sMuarl5lH9b-76">
          <mxGeometry relative="1" as="geometry" />
        </mxCell>
        <mxCell id="at10dXYq1sMuarl5lH9b-224" value="Relationship" style="shape=rhombus;perimeter=rhombusPerimeter;whiteSpace=wrap;html=1;align=center;fontFamily=Helvetica;fontSize=11;fontColor=default;labelBackgroundColor=default;" vertex="1" parent="1">
          <mxGeometry x="-401" y="441" width="120" height="60" as="geometry" />
        </mxCell>
      </root>
    </mxGraphModel>
  </diagram>
</mxfile>
